<svg xmlns="http://www.w3.org/2000/svg" xmlns:xlink="http://www.w3.org/1999/xlink" width="1024" zoomAndPan="magnify" viewBox="0 0 768 449.999984" height="600" preserveAspectRatio="xMidYMid meet" version="1.0"><defs><g/></defs><g fill="#435ebe" fill-opacity="1"><g transform="translate(36.67951, 366.586812)"><g><path d="M 81.390625 0 L 58.578125 0 L 54.671875 -26.109375 L 26.921875 -26.109375 L 23.015625 0 L 2.265625 0 L 25.28125 -143.875 L 58.375 -143.875 Z M 29.796875 -45.625 L 51.59375 -45.625 L 40.6875 -118.390625 Z M 29.796875 -45.625 "/></g></g></g><g fill="#435ebe" fill-opacity="1"><g transform="translate(112.928944, 366.586812)"><g><path d="M 5.34375 -109.34375 C 5.34375 -120.988281 8.113281 -129.925781 13.65625 -136.15625 C 19.207031 -142.394531 27.535156 -145.515625 38.640625 -145.515625 C 49.734375 -145.515625 58.054688 -142.394531 63.609375 -136.15625 C 69.160156 -129.925781 71.9375 -120.988281 71.9375 -109.34375 L 71.9375 -104.828125 L 50.5625 -104.828125 L 50.5625 -110.78125 C 50.5625 -115.988281 49.566406 -119.65625 47.578125 -121.78125 C 45.585938 -123.90625 42.8125 -124.96875 39.25 -124.96875 C 35.6875 -124.96875 32.910156 -123.90625 30.921875 -121.78125 C 28.941406 -119.65625 27.953125 -115.988281 27.953125 -110.78125 C 27.953125 -105.84375 29.046875 -101.488281 31.234375 -97.71875 C 33.429688 -93.957031 36.171875 -90.394531 39.453125 -87.03125 C 42.742188 -83.675781 46.273438 -80.320312 50.046875 -76.96875 C 53.816406 -73.613281 57.34375 -69.945312 60.625 -65.96875 C 63.914062 -62 66.65625 -57.476562 68.84375 -52.40625 C 71.039062 -47.34375 72.140625 -41.382812 72.140625 -34.53125 C 72.140625 -22.882812 69.296875 -13.941406 63.609375 -7.703125 C 57.921875 -1.472656 49.53125 1.640625 38.4375 1.640625 C 27.332031 1.640625 18.9375 -1.472656 13.25 -7.703125 C 7.570312 -13.941406 4.734375 -22.882812 4.734375 -34.53125 L 4.734375 -43.359375 L 26.109375 -43.359375 L 26.109375 -33.09375 C 26.109375 -27.882812 27.164062 -24.25 29.28125 -22.1875 C 31.40625 -20.132812 34.25 -19.109375 37.8125 -19.109375 C 41.375 -19.109375 44.21875 -20.132812 46.34375 -22.1875 C 48.46875 -24.25 49.53125 -27.882812 49.53125 -33.09375 C 49.53125 -38.019531 48.429688 -42.367188 46.234375 -46.140625 C 44.046875 -49.910156 41.304688 -53.472656 38.015625 -56.828125 C 34.734375 -60.179688 31.207031 -63.535156 27.4375 -66.890625 C 23.664062 -70.253906 20.132812 -73.921875 16.84375 -77.890625 C 13.5625 -81.867188 10.820312 -86.390625 8.625 -91.453125 C 6.4375 -96.523438 5.34375 -102.488281 5.34375 -109.34375 Z M 5.34375 -109.34375 "/></g></g></g><g fill="#435ebe" fill-opacity="1"><g transform="translate(182.396067, 366.586812)"><g><path d="M 5.34375 -109.34375 C 5.34375 -120.988281 8.113281 -129.925781 13.65625 -136.15625 C 19.207031 -142.394531 27.535156 -145.515625 38.640625 -145.515625 C 49.734375 -145.515625 58.054688 -142.394531 63.609375 -136.15625 C 69.160156 -129.925781 71.9375 -120.988281 71.9375 -109.34375 L 71.9375 -104.828125 L 50.5625 -104.828125 L 50.5625 -110.78125 C 50.5625 -115.988281 49.566406 -119.65625 47.578125 -121.78125 C 45.585938 -123.90625 42.8125 -124.96875 39.25 -124.96875 C 35.6875 -124.96875 32.910156 -123.90625 30.921875 -121.78125 C 28.941406 -119.65625 27.953125 -115.988281 27.953125 -110.78125 C 27.953125 -105.84375 29.046875 -101.488281 31.234375 -97.71875 C 33.429688 -93.957031 36.171875 -90.394531 39.453125 -87.03125 C 42.742188 -83.675781 46.273438 -80.320312 50.046875 -76.96875 C 53.816406 -73.613281 57.34375 -69.945312 60.625 -65.96875 C 63.914062 -62 66.65625 -57.476562 68.84375 -52.40625 C 71.039062 -47.34375 72.140625 -41.382812 72.140625 -34.53125 C 72.140625 -22.882812 69.296875 -13.941406 63.609375 -7.703125 C 57.921875 -1.472656 49.53125 1.640625 38.4375 1.640625 C 27.332031 1.640625 18.9375 -1.472656 13.25 -7.703125 C 7.570312 -13.941406 4.734375 -22.882812 4.734375 -34.53125 L 4.734375 -43.359375 L 26.109375 -43.359375 L 26.109375 -33.09375 C 26.109375 -27.882812 27.164062 -24.25 29.28125 -22.1875 C 31.40625 -20.132812 34.25 -19.109375 37.8125 -19.109375 C 41.375 -19.109375 44.21875 -20.132812 46.34375 -22.1875 C 48.46875 -24.25 49.53125 -27.882812 49.53125 -33.09375 C 49.53125 -38.019531 48.429688 -42.367188 46.234375 -46.140625 C 44.046875 -49.910156 41.304688 -53.472656 38.015625 -56.828125 C 34.734375 -60.179688 31.207031 -63.535156 27.4375 -66.890625 C 23.664062 -70.253906 20.132812 -73.921875 16.84375 -77.890625 C 13.5625 -81.867188 10.820312 -86.390625 8.625 -91.453125 C 6.4375 -96.523438 5.34375 -102.488281 5.34375 -109.34375 Z M 5.34375 -109.34375 "/></g></g></g><g fill="#435ebe" fill-opacity="1"><g transform="translate(251.86319, 366.586812)"><g><path d="M 30.828125 -83.234375 L 61.859375 -83.234375 L 61.859375 -62.6875 L 30.828125 -62.6875 L 30.828125 -20.546875 L 69.875 -20.546875 L 69.875 0 L 8.21875 0 L 8.21875 -143.875 L 69.875 -143.875 L 69.875 -123.3125 L 30.828125 -123.3125 Z M 30.828125 -83.234375 "/></g></g></g><g fill="#435ebe" fill-opacity="1"><g transform="translate(320.097154, 366.586812)"><g><path d="M 1.640625 -143.875 L 71.53125 -143.875 L 71.53125 -123.3125 L 47.890625 -123.3125 L 47.890625 0 L 25.28125 0 L 25.28125 -123.3125 L 1.640625 -123.3125 Z M 1.640625 -143.875 "/></g></g></g><g fill="#435ebe" fill-opacity="1"><g transform="translate(385.864856, 366.586812)"><g><path d="M 1.640625 -143.875 L 71.53125 -143.875 L 71.53125 -123.3125 L 47.890625 -123.3125 L 47.890625 0 L 25.28125 0 L 25.28125 -123.3125 L 1.640625 -123.3125 Z M 1.640625 -143.875 "/></g></g></g><g fill="#435ebe" fill-opacity="1"><g transform="translate(451.632559, 366.586812)"><g><path d="M 55.5 0 C 55.21875 -0.957031 54.941406 -1.847656 54.671875 -2.671875 C 54.398438 -3.492188 54.160156 -4.519531 53.953125 -5.75 C 53.742188 -6.988281 53.601562 -8.566406 53.53125 -10.484375 C 53.46875 -12.398438 53.4375 -14.796875 53.4375 -17.671875 L 53.4375 -40.28125 C 53.4375 -47 52.269531 -51.726562 49.9375 -54.46875 C 47.613281 -57.207031 43.847656 -58.578125 38.640625 -58.578125 L 30.828125 -58.578125 L 30.828125 0 L 8.21875 0 L 8.21875 -143.875 L 42.34375 -143.875 C 54.125 -143.875 62.648438 -141.128906 67.921875 -135.640625 C 73.203125 -130.160156 75.84375 -121.875 75.84375 -110.78125 L 75.84375 -99.484375 C 75.84375 -84.679688 70.910156 -74.953125 61.046875 -70.296875 C 66.796875 -67.960938 70.734375 -64.15625 72.859375 -58.875 C 74.984375 -53.601562 76.046875 -47.203125 76.046875 -39.671875 L 76.046875 -17.46875 C 76.046875 -13.90625 76.179688 -10.785156 76.453125 -8.109375 C 76.734375 -5.441406 77.421875 -2.738281 78.515625 0 Z M 30.828125 -123.3125 L 30.828125 -79.125 L 39.671875 -79.125 C 43.910156 -79.125 47.226562 -80.21875 49.625 -82.40625 C 52.03125 -84.601562 53.234375 -88.582031 53.234375 -94.34375 L 53.234375 -108.515625 C 53.234375 -113.722656 52.304688 -117.488281 50.453125 -119.8125 C 48.609375 -122.144531 45.695312 -123.3125 41.71875 -123.3125 Z M 30.828125 -123.3125 "/></g></g></g><g fill="#435ebe" fill-opacity="1"><g transform="translate(526.854333, 366.586812)"><g><path d="M 81.390625 0 L 58.578125 0 L 54.671875 -26.109375 L 26.921875 -26.109375 L 23.015625 0 L 2.265625 0 L 25.28125 -143.875 L 58.375 -143.875 Z M 29.796875 -45.625 L 51.59375 -45.625 L 40.6875 -118.390625 Z M 29.796875 -45.625 "/></g></g></g><g fill="#435ebe" fill-opacity="1"><g transform="translate(603.103767, 366.586812)"><g><path d="M 73.78125 -53.640625 L 73.78125 -34.53125 C 73.78125 -22.882812 70.9375 -13.941406 65.25 -7.703125 C 59.570312 -1.472656 51.179688 1.640625 40.078125 1.640625 C 28.984375 1.640625 20.59375 -1.472656 14.90625 -7.703125 C 9.21875 -13.941406 6.375 -22.882812 6.375 -34.53125 L 6.375 -109.34375 C 6.375 -120.988281 9.21875 -129.925781 14.90625 -136.15625 C 20.59375 -142.394531 28.984375 -145.515625 40.078125 -145.515625 C 51.179688 -145.515625 59.570312 -142.394531 65.25 -136.15625 C 70.9375 -129.925781 73.78125 -120.988281 73.78125 -109.34375 L 73.78125 -95.359375 L 52.40625 -95.359375 L 52.40625 -110.78125 C 52.40625 -115.988281 51.34375 -119.65625 49.21875 -121.78125 C 47.09375 -123.90625 44.25 -124.96875 40.6875 -124.96875 C 37.125 -124.96875 34.28125 -123.90625 32.15625 -121.78125 C 30.039062 -119.65625 28.984375 -115.988281 28.984375 -110.78125 L 28.984375 -33.09375 C 28.984375 -27.882812 30.039062 -24.25 32.15625 -22.1875 C 34.28125 -20.132812 37.125 -19.109375 40.6875 -19.109375 C 44.25 -19.109375 47.09375 -20.132812 49.21875 -22.1875 C 51.34375 -24.25 52.40625 -27.882812 52.40625 -33.09375 L 52.40625 -53.640625 Z M 73.78125 -53.640625 "/></g></g></g><g fill="#435ebe" fill-opacity="1"><g transform="translate(675.037194, 366.586812)"><g><path d="M 37.8125 -57.34375 L 30.828125 -44.1875 L 30.828125 0 L 8.21875 0 L 8.21875 -143.875 L 30.828125 -143.875 L 30.828125 -81.1875 L 60.421875 -143.875 L 83.03125 -143.875 L 51.59375 -79.75 L 83.03125 0 L 59.8125 0 Z M 37.8125 -57.34375 "/></g></g></g><path stroke-linecap="butt" transform="matrix(-0.00742815, -0.749963, 0.749963, -0.00742815, 9.066957, 444.540901)" fill="none" stroke-linejoin="miter" d="M -0.00104587 13.499919 L 369.787947 13.500927 " stroke="#435ebe" stroke-width="27" stroke-opacity="1" stroke-miterlimit="4"/><path stroke-linecap="butt" transform="matrix(-0.749993, -0.00329617, 0.00329617, -0.749993, 344.296511, 450.200173)" fill="none" stroke-linejoin="miter" d="M 0.00156034 13.501397 L 445.365293 13.502404 " stroke="#435ebe" stroke-width="27" stroke-opacity="1" stroke-miterlimit="4"/><path stroke-linecap="butt" transform="matrix(0.53033, -0.53033, 0.53033, 0.53033, 6.587506, 165.658756)" fill="none" stroke-linejoin="miter" d="M 0.000883752 13.49748 L 312.810952 13.501163 " stroke="#435ebe" stroke-width="27" stroke-opacity="1" stroke-miterlimit="4"/><path stroke-linecap="butt" transform="matrix(0.53033, 0.53033, -0.53033, 0.53033, 175.641915, -0.190886)" fill="none" stroke-linejoin="miter" d="M 0.00197604 13.498363 L 312.738387 13.502046 " stroke="#435ebe" stroke-width="27" stroke-opacity="1" stroke-miterlimit="4"/><g fill="#435ebe" fill-opacity="1"><g transform="translate(407.920196, 81.762288)"><g><path d="M 18.828125 0.71875 C 16.535156 0.71875 14.039062 0.398438 11.34375 -0.234375 C 8.644531 -0.878906 6.332031 -1.734375 4.40625 -2.796875 L 4 -14.65625 L 9.140625 -14.984375 L 11.859375 -6.734375 C 12.984375 -6.035156 14.265625 -5.484375 15.703125 -5.078125 C 17.148438 -4.679688 18.539062 -4.484375 19.875 -4.484375 C 22.269531 -4.484375 24.09375 -4.988281 25.34375 -6 C 26.601562 -7.019531 27.234375 -8.382812 27.234375 -10.09375 C 27.234375 -11.96875 26.6875 -13.460938 25.59375 -14.578125 C 24.5 -15.703125 23.070312 -16.664062 21.3125 -17.46875 C 19.550781 -18.269531 17.679688 -19.054688 15.703125 -19.828125 C 13.722656 -20.609375 11.851562 -21.546875 10.09375 -22.640625 C 8.332031 -23.734375 6.90625 -25.132812 5.8125 -26.84375 C 4.71875 -28.550781 4.171875 -30.765625 4.171875 -33.484375 C 4.171875 -36.367188 4.984375 -38.894531 6.609375 -41.0625 C 8.234375 -43.226562 10.53125 -44.910156 13.5 -46.109375 C 16.46875 -47.316406 19.898438 -47.921875 23.796875 -47.921875 C 25.023438 -47.921875 26.359375 -47.835938 27.796875 -47.671875 C 29.242188 -47.515625 30.632812 -47.257812 31.96875 -46.90625 C 33.300781 -46.5625 34.453125 -46.175781 35.421875 -45.75 L 36.375 -34.046875 L 31.25 -33.734375 L 28.6875 -41.578125 C 27.03125 -42.429688 25.132812 -42.859375 23 -42.859375 C 20.800781 -42.859375 18.992188 -42.3125 17.578125 -41.21875 C 16.171875 -40.125 15.46875 -38.585938 15.46875 -36.609375 C 15.46875 -34.847656 16.023438 -33.394531 17.140625 -32.25 C 18.265625 -31.101562 19.722656 -30.113281 21.515625 -29.28125 C 23.304688 -28.457031 25.203125 -27.644531 27.203125 -26.84375 C 29.203125 -26.039062 31.082031 -25.09375 32.84375 -24 C 34.613281 -22.90625 36.054688 -21.53125 37.171875 -19.875 C 38.296875 -18.21875 38.859375 -16.109375 38.859375 -13.546875 C 38.859375 -10.816406 38.03125 -8.367188 36.375 -6.203125 C 34.71875 -4.046875 32.378906 -2.351562 29.359375 -1.125 C 26.347656 0.101562 22.835938 0.71875 18.828125 0.71875 Z M 18.828125 0.71875 "/></g></g></g><g fill="#435ebe" fill-opacity="1"><g transform="translate(444.999561, 81.762288)"><g><path d="M 3.046875 -47.03125 L 25.15625 -47.03125 C 33.8125 -47.03125 40.566406 -45.015625 45.421875 -40.984375 C 50.285156 -36.953125 52.71875 -31.332031 52.71875 -24.125 C 52.71875 -19.46875 51.566406 -15.3125 49.265625 -11.65625 C 46.972656 -8 43.8125 -5.140625 39.78125 -3.078125 C 35.75 -1.023438 31.140625 0 25.953125 0 L 3.046875 0 L 2.796875 -4 L 7.9375 -5.28125 C 8.09375 -5.65625 8.222656 -7.003906 8.328125 -9.328125 C 8.441406 -11.648438 8.5 -14.414062 8.5 -17.625 L 8.5 -29.328125 C 8.5 -32.691406 8.441406 -35.535156 8.328125 -37.859375 C 8.222656 -40.179688 8.09375 -41.476562 7.9375 -41.75 L 2.796875 -43.03125 Z M 19.46875 -41.671875 C 19.46875 -41.347656 19.453125 -40.664062 19.421875 -39.625 C 19.398438 -38.582031 19.375 -37.21875 19.34375 -35.53125 C 19.320312 -33.851562 19.3125 -31.785156 19.3125 -29.328125 L 19.3125 -17.625 C 19.3125 -16.238281 19.320312 -14.785156 19.34375 -13.265625 C 19.375 -11.742188 19.425781 -10.335938 19.5 -9.046875 C 19.582031 -7.765625 19.648438 -6.753906 19.703125 -6.015625 C 20.929688 -5.796875 22.144531 -5.617188 23.34375 -5.484375 C 24.550781 -5.347656 25.691406 -5.28125 26.765625 -5.28125 C 31.304688 -5.28125 34.738281 -6.585938 37.0625 -9.203125 C 39.382812 -11.828125 40.546875 -15.972656 40.546875 -21.640625 C 40.546875 -25.367188 40.117188 -28.539062 39.265625 -31.15625 C 38.410156 -33.78125 37.234375 -35.894531 35.734375 -37.5 C 34.234375 -39.101562 32.519531 -40.273438 30.59375 -41.015625 C 28.675781 -41.765625 26.625 -42.140625 24.4375 -42.140625 C 23.6875 -42.140625 22.882812 -42.097656 22.03125 -42.015625 C 21.175781 -41.941406 20.320312 -41.828125 19.46875 -41.671875 Z M 19.46875 -41.671875 "/></g></g></g><g fill="#435ebe" fill-opacity="1"><g transform="translate(497.621513, 81.762288)"><g><path d="M 3.046875 0 L 2.796875 -4 L 7.859375 -5.28125 C 7.960938 -5.550781 8.050781 -6.242188 8.125 -7.359375 C 8.207031 -8.484375 8.273438 -9.941406 8.328125 -11.734375 C 8.378906 -13.523438 8.40625 -15.488281 8.40625 -17.625 L 8.40625 -29.328125 C 8.40625 -31.566406 8.378906 -33.582031 8.328125 -35.375 C 8.273438 -37.164062 8.207031 -38.632812 8.125 -39.78125 C 8.050781 -40.925781 7.960938 -41.582031 7.859375 -41.75 L 2.796875 -43.03125 L 3.046875 -47.03125 L 24.59375 -47.03125 L 24.84375 -43.03125 L 19.703125 -41.75 C 19.597656 -41.53125 19.503906 -40.847656 19.421875 -39.703125 C 19.347656 -38.554688 19.296875 -37.085938 19.265625 -35.296875 C 19.242188 -33.503906 19.234375 -31.515625 19.234375 -29.328125 L 19.234375 -17.625 C 19.234375 -15.539062 19.242188 -13.617188 19.265625 -11.859375 C 19.296875 -10.097656 19.347656 -8.640625 19.421875 -7.484375 C 19.503906 -6.335938 19.597656 -5.601562 19.703125 -5.28125 L 24.84375 -4 L 24.59375 0 Z M 3.046875 0 "/></g></g></g><g fill="#435ebe" fill-opacity="1"><g transform="translate(521.241319, 81.762288)"><g><path d="M 15.625 0.640625 C 13.382812 0.640625 11.164062 0.390625 8.96875 -0.109375 C 6.78125 -0.617188 4.910156 -1.273438 3.359375 -2.078125 L 2.96875 -11.53125 L 8.171875 -11.53125 L 9.859375 -5.765625 C 11.890625 -4.535156 14 -3.921875 16.1875 -3.921875 C 17.84375 -3.921875 19.097656 -4.253906 19.953125 -4.921875 C 20.804688 -5.585938 21.234375 -6.484375 21.234375 -7.609375 C 21.234375 -8.785156 20.765625 -9.785156 19.828125 -10.609375 C 18.890625 -11.441406 16.984375 -12.421875 14.109375 -13.546875 C 10.148438 -14.984375 7.394531 -16.554688 5.84375 -18.265625 C 4.300781 -19.972656 3.53125 -22.109375 3.53125 -24.671875 C 3.53125 -26.867188 4.195312 -28.804688 5.53125 -30.484375 C 6.863281 -32.171875 8.734375 -33.476562 11.140625 -34.40625 C 13.546875 -35.34375 16.320312 -35.8125 19.46875 -35.8125 C 21.175781 -35.8125 22.910156 -35.648438 24.671875 -35.328125 C 26.441406 -35.015625 27.910156 -34.585938 29.078125 -34.046875 L 29.96875 -24.765625 L 24.84375 -24.765625 L 23.078125 -30.453125 C 22.546875 -30.765625 21.890625 -31.015625 21.109375 -31.203125 C 20.335938 -31.390625 19.601562 -31.484375 18.90625 -31.484375 C 17.300781 -31.484375 16.019531 -31.132812 15.0625 -30.4375 C 14.101562 -29.75 13.625 -28.816406 13.625 -27.640625 C 13.625 -26.410156 14.207031 -25.351562 15.375 -24.46875 C 16.550781 -23.59375 18.691406 -22.515625 21.796875 -21.234375 C 25.316406 -19.785156 27.820312 -18.25 29.3125 -16.625 C 30.8125 -15 31.5625 -12.984375 31.5625 -10.578125 C 31.5625 -7.210938 30.078125 -4.5 27.109375 -2.4375 C 24.148438 -0.382812 20.320312 0.640625 15.625 0.640625 Z M 15.625 0.640625 "/></g></g></g><g fill="#435ebe" fill-opacity="1"><g transform="translate(550.709624, 81.762288)"><g><path d="M 1.28125 0 L 1.046875 -3.765625 L 6.25 -5.046875 C 6.300781 -5.628906 6.363281 -6.65625 6.4375 -8.125 C 6.519531 -9.601562 6.585938 -11.300781 6.640625 -13.21875 C 6.703125 -15.144531 6.734375 -17.015625 6.734375 -18.828125 L 6.734375 -28.921875 C 6.734375 -30.796875 6.71875 -32.640625 6.6875 -34.453125 C 6.664062 -36.265625 6.640625 -38.007812 6.609375 -39.6875 C 6.578125 -41.375 6.535156 -42.898438 6.484375 -44.265625 C 6.429688 -45.628906 6.351562 -46.765625 6.25 -47.671875 L 0.328125 -48.46875 L 0.15625 -51.921875 L 15.46875 -55.84375 L 17.703125 -54.484375 C 17.597656 -52.242188 17.519531 -50.066406 17.46875 -47.953125 C 17.414062 -45.847656 17.375 -43.457031 17.34375 -40.78125 C 17.320312 -38.113281 17.3125 -34.859375 17.3125 -31.015625 L 17.234375 -19.234375 C 17.234375 -15.492188 17.257812 -12.328125 17.3125 -9.734375 C 17.363281 -7.140625 17.441406 -5.578125 17.546875 -5.046875 L 22.75 -3.765625 L 22.59375 0 Z M 1.28125 0 "/></g></g></g><g fill="#435ebe" fill-opacity="1"><g transform="translate(570.563958, 81.762288)"><g><path d="M 15.0625 0.640625 C 12.601562 0.640625 10.476562 0.109375 8.6875 -0.953125 C 6.90625 -2.023438 5.546875 -3.304688 4.609375 -4.796875 C 3.671875 -6.296875 3.203125 -7.710938 3.203125 -9.046875 C 3.203125 -11.023438 3.800781 -12.65625 5 -13.9375 C 6.207031 -15.21875 8.066406 -16.234375 10.578125 -16.984375 L 23.15625 -20.671875 L 23.15625 -23.5625 C 23.15625 -24.675781 22.796875 -25.726562 22.078125 -26.71875 C 21.359375 -27.707031 20.410156 -28.519531 19.234375 -29.15625 C 18.054688 -29.800781 16.800781 -30.125 15.46875 -30.125 C 14.613281 -30.125 14.007812 -29.921875 13.65625 -29.515625 C 13.3125 -29.117188 13.085938 -28.332031 12.984375 -27.15625 L 12.578125 -22.28125 C 9.910156 -21.738281 7.734375 -21.828125 6.046875 -22.546875 C 4.367188 -23.273438 3.53125 -24.46875 3.53125 -26.125 C 3.53125 -27.132812 4.0625 -28.171875 5.125 -29.234375 C 6.195312 -30.304688 7.519531 -31.3125 9.09375 -32.25 C 10.664062 -33.1875 12.28125 -33.988281 13.9375 -34.65625 C 15.59375 -35.320312 17.0625 -35.707031 18.34375 -35.8125 C 23.050781 -35.8125 26.804688 -34.726562 29.609375 -32.5625 C 32.410156 -30.40625 33.8125 -27.507812 33.8125 -23.875 L 33.578125 -12.734375 C 33.578125 -11.242188 33.613281 -10.082031 33.6875 -9.25 C 33.769531 -8.425781 33.945312 -7.75 34.21875 -7.21875 L 39.421875 -6.25 L 39.421875 -2.890625 L 34.21875 -0.5625 C 33.300781 -0.1875 32.425781 0.101562 31.59375 0.3125 C 30.769531 0.53125 29.988281 0.640625 29.25 0.640625 C 27.164062 0.640625 25.695312 -0.425781 24.84375 -2.5625 L 23.46875 -6.25 L 25.15625 -5.84375 C 23.5 -3.8125 21.800781 -2.222656 20.0625 -1.078125 C 18.332031 0.0664062 16.664062 0.640625 15.0625 0.640625 Z M 19.15625 -6.5625 C 19.894531 -6.5625 20.613281 -6.707031 21.3125 -7 C 22.007812 -7.300781 22.648438 -7.742188 23.234375 -8.328125 L 23.234375 -16.1875 L 17.78125 -15.21875 C 16.5 -15.007812 15.566406 -14.582031 14.984375 -13.9375 C 14.398438 -13.300781 14.109375 -12.472656 14.109375 -11.453125 C 14.109375 -10.171875 14.597656 -9.035156 15.578125 -8.046875 C 16.566406 -7.054688 17.757812 -6.5625 19.15625 -6.5625 Z M 19.15625 -6.5625 "/></g></g></g><g fill="#435ebe" fill-opacity="1"><g transform="translate(606.60181, 81.762288)"><g><path d="M 1.609375 0 L 1.359375 -3.6875 L 6.328125 -5.046875 C 6.378906 -5.265625 6.429688 -5.757812 6.484375 -6.53125 C 6.535156 -7.300781 6.585938 -8.257812 6.640625 -9.40625 C 6.703125 -10.5625 6.734375 -11.78125 6.734375 -13.0625 L 6.8125 -19.0625 C 6.8125 -20.132812 6.785156 -21.109375 6.734375 -21.984375 C 6.679688 -22.867188 6.597656 -23.75 6.484375 -24.625 C 6.378906 -25.507812 6.25 -26.410156 6.09375 -27.328125 L 0.96875 -28.4375 L 0.96875 -32.046875 L 15.0625 -35.65625 L 17.3125 -34.296875 L 16.828125 -29.640625 L 17.0625 -29.5625 C 18.769531 -31.75 20.546875 -33.335938 22.390625 -34.328125 C 24.234375 -35.316406 26.171875 -35.8125 28.203125 -35.8125 C 30.285156 -35.8125 32.234375 -35.289062 34.046875 -34.25 C 35.867188 -33.207031 37.328125 -31.628906 38.421875 -29.515625 C 39.515625 -27.410156 40.0625 -24.703125 40.0625 -21.390625 L 40.21875 -13.140625 C 40.21875 -11.378906 40.242188 -9.695312 40.296875 -8.09375 C 40.347656 -6.488281 40.457031 -5.472656 40.625 -5.046875 L 45.03125 -3.6875 L 44.796875 0 L 25.71875 0 L 25.484375 -3.6875 L 29.5625 -5.046875 C 29.664062 -5.578125 29.742188 -6.269531 29.796875 -7.125 C 29.859375 -7.976562 29.898438 -8.941406 29.921875 -10.015625 C 29.953125 -11.085938 29.96875 -12.101562 29.96875 -13.0625 L 29.890625 -20.59375 C 29.890625 -22.507812 29.609375 -24.03125 29.046875 -25.15625 C 28.484375 -26.28125 27.734375 -27.09375 26.796875 -27.59375 C 25.867188 -28.101562 24.816406 -28.359375 23.640625 -28.359375 C 22.410156 -28.359375 21.207031 -28.050781 20.03125 -27.4375 C 18.851562 -26.820312 17.863281 -25.984375 17.0625 -24.921875 L 17.0625 -13.140625 C 17.0625 -11.378906 17.101562 -9.695312 17.1875 -8.09375 C 17.269531 -6.488281 17.390625 -5.472656 17.546875 -5.046875 L 21.953125 -3.6875 L 21.71875 0 Z M 48.640625 0 L 48.390625 -3.6875 L 52.5625 -5.046875 C 52.664062 -5.578125 52.742188 -6.285156 52.796875 -7.171875 C 52.847656 -8.054688 52.890625 -9.03125 52.921875 -10.09375 C 52.953125 -11.164062 52.96875 -12.15625 52.96875 -13.0625 L 52.796875 -19.875 C 52.796875 -21.90625 52.5 -23.546875 51.90625 -24.796875 C 51.320312 -26.054688 50.523438 -26.960938 49.515625 -27.515625 C 48.503906 -28.078125 47.382812 -28.359375 46.15625 -28.359375 C 44.875 -28.359375 43.628906 -28.078125 42.421875 -27.515625 C 41.222656 -26.960938 40.195312 -26.125 39.34375 -25 L 37.015625 -28.046875 C 38.941406 -30.609375 40.984375 -32.539062 43.140625 -33.84375 C 45.304688 -35.15625 47.644531 -35.8125 50.15625 -35.8125 C 52.71875 -35.8125 54.972656 -35.25 56.921875 -34.125 C 58.878906 -33.007812 60.390625 -31.367188 61.453125 -29.203125 C 62.523438 -27.035156 63.0625 -24.457031 63.0625 -21.46875 L 63.21875 -13.140625 C 63.21875 -11.378906 63.242188 -9.695312 63.296875 -8.09375 C 63.347656 -6.488281 63.457031 -5.472656 63.625 -5.046875 L 68.59375 -3.6875 L 68.34375 0 Z M 48.640625 0 "/></g></g></g><g fill="#435ebe" fill-opacity="1"><g transform="translate(319.297334, 145.680079)"><g><path d="M 45.90625 -47.4375 L 47.75 -33.25 L 42.78125 -32.84375 L 39.578125 -42.0625 C 39.046875 -42.164062 38.484375 -42.234375 37.890625 -42.265625 C 37.304688 -42.296875 36.664062 -42.3125 35.96875 -42.3125 L 33.25 -42.3125 C 32.769531 -42.3125 32.222656 -42.3125 31.609375 -42.3125 C 30.992188 -42.3125 30.523438 -42.253906 30.203125 -42.140625 C 30.203125 -41.828125 30.1875 -40.84375 30.15625 -39.1875 C 30.132812 -37.53125 30.109375 -35.550781 30.078125 -33.25 C 30.054688 -30.957031 30.046875 -28.632812 30.046875 -26.28125 L 30.046875 -18.828125 C 30.046875 -15.835938 30.070312 -13.140625 30.125 -10.734375 C 30.175781 -8.328125 30.226562 -6.507812 30.28125 -5.28125 L 37.25 -4.171875 L 37.015625 0 L 12.09375 0 L 11.859375 -4.171875 L 18.828125 -5.28125 C 18.878906 -6.507812 18.929688 -8.328125 18.984375 -10.734375 C 19.035156 -13.140625 19.0625 -15.835938 19.0625 -18.828125 L 19.0625 -26.28125 C 19.0625 -28.632812 19.046875 -30.957031 19.015625 -33.25 C 18.992188 -35.550781 18.984375 -37.53125 18.984375 -39.1875 C 18.984375 -40.84375 18.957031 -41.828125 18.90625 -42.140625 C 18.582031 -42.253906 18.113281 -42.3125 17.5 -42.3125 C 16.882812 -42.3125 16.335938 -42.3125 15.859375 -42.3125 L 13.0625 -42.3125 C 12.414062 -42.3125 11.757812 -42.296875 11.09375 -42.265625 C 10.425781 -42.234375 9.828125 -42.164062 9.296875 -42.0625 L 6.25 -32.6875 L 1.28125 -33.171875 L 2.96875 -47.4375 C 3.5 -47.4375 4.257812 -47.40625 5.25 -47.34375 C 6.238281 -47.289062 7.28125 -47.238281 8.375 -47.1875 C 9.46875 -47.132812 10.535156 -47.09375 11.578125 -47.0625 C 12.617188 -47.039062 13.515625 -47.03125 14.265625 -47.03125 L 34.609375 -47.03125 C 35.359375 -47.03125 36.238281 -47.039062 37.25 -47.0625 C 38.269531 -47.09375 39.335938 -47.132812 40.453125 -47.1875 C 41.578125 -47.238281 42.617188 -47.289062 43.578125 -47.34375 C 44.546875 -47.40625 45.320312 -47.4375 45.90625 -47.4375 Z M 45.90625 -47.4375 "/></g></g></g><g fill="#435ebe" fill-opacity="1"><g transform="translate(364.388342, 145.680079)"><g><path d="M 21.640625 0.640625 C 17.898438 0.640625 14.613281 -0.117188 11.78125 -1.640625 C 8.945312 -3.160156 6.726562 -5.269531 5.125 -7.96875 C 3.519531 -10.664062 2.71875 -13.753906 2.71875 -17.234375 C 2.71875 -21.179688 3.625 -24.539062 5.4375 -27.3125 C 7.257812 -30.09375 9.640625 -32.203125 12.578125 -33.640625 C 15.515625 -35.085938 18.640625 -35.8125 21.953125 -35.8125 C 25.535156 -35.8125 28.675781 -35.0625 31.375 -33.5625 C 34.070312 -32.070312 36.179688 -29.976562 37.703125 -27.28125 C 39.222656 -24.582031 39.984375 -21.5 39.984375 -18.03125 C 39.984375 -14.5 39.15625 -11.332031 37.5 -8.53125 C 35.84375 -5.726562 33.640625 -3.5 30.890625 -1.84375 C 28.140625 -0.1875 25.054688 0.640625 21.640625 0.640625 Z M 22.4375 -4.484375 C 23.769531 -4.484375 24.898438 -4.910156 25.828125 -5.765625 C 26.765625 -6.617188 27.488281 -7.875 28 -9.53125 C 28.507812 -11.1875 28.765625 -13.164062 28.765625 -15.46875 C 28.765625 -20.0625 28.03125 -23.800781 26.5625 -26.6875 C 25.09375 -29.570312 23.128906 -31.015625 20.671875 -31.015625 C 18.691406 -31.015625 17.101562 -29.984375 15.90625 -27.921875 C 14.707031 -25.867188 14.109375 -23.078125 14.109375 -19.546875 C 14.109375 -16.710938 14.46875 -14.144531 15.1875 -11.84375 C 15.90625 -9.550781 16.890625 -7.75 18.140625 -6.4375 C 19.398438 -5.132812 20.832031 -4.484375 22.4375 -4.484375 Z M 22.4375 -4.484375 "/></g></g></g><g fill="#435ebe" fill-opacity="1"><g transform="translate(403.070036, 145.680079)"><g><path d="M 1.609375 0 L 1.359375 -3.6875 L 6.328125 -5.046875 C 6.378906 -5.265625 6.429688 -5.757812 6.484375 -6.53125 C 6.535156 -7.300781 6.585938 -8.257812 6.640625 -9.40625 C 6.703125 -10.5625 6.734375 -11.78125 6.734375 -13.0625 L 6.8125 -19.0625 C 6.8125 -20.132812 6.785156 -21.109375 6.734375 -21.984375 C 6.679688 -22.867188 6.597656 -23.75 6.484375 -24.625 C 6.378906 -25.507812 6.25 -26.410156 6.09375 -27.328125 L 0.96875 -28.4375 L 0.96875 -32.046875 L 15.0625 -35.65625 L 17.3125 -34.296875 L 16.828125 -29.640625 L 17.0625 -29.5625 C 18.769531 -31.75 20.546875 -33.335938 22.390625 -34.328125 C 24.234375 -35.316406 26.171875 -35.8125 28.203125 -35.8125 C 30.285156 -35.8125 32.234375 -35.289062 34.046875 -34.25 C 35.867188 -33.207031 37.328125 -31.628906 38.421875 -29.515625 C 39.515625 -27.410156 40.0625 -24.703125 40.0625 -21.390625 L 40.21875 -13.140625 C 40.21875 -11.378906 40.242188 -9.695312 40.296875 -8.09375 C 40.347656 -6.488281 40.457031 -5.472656 40.625 -5.046875 L 45.03125 -3.6875 L 44.796875 0 L 25.71875 0 L 25.484375 -3.6875 L 29.5625 -5.046875 C 29.664062 -5.578125 29.742188 -6.269531 29.796875 -7.125 C 29.859375 -7.976562 29.898438 -8.941406 29.921875 -10.015625 C 29.953125 -11.085938 29.96875 -12.101562 29.96875 -13.0625 L 29.890625 -20.59375 C 29.890625 -22.507812 29.609375 -24.03125 29.046875 -25.15625 C 28.484375 -26.28125 27.734375 -27.09375 26.796875 -27.59375 C 25.867188 -28.101562 24.816406 -28.359375 23.640625 -28.359375 C 22.410156 -28.359375 21.207031 -28.050781 20.03125 -27.4375 C 18.851562 -26.820312 17.863281 -25.984375 17.0625 -24.921875 L 17.0625 -13.140625 C 17.0625 -11.378906 17.101562 -9.695312 17.1875 -8.09375 C 17.269531 -6.488281 17.390625 -5.472656 17.546875 -5.046875 L 21.953125 -3.6875 L 21.71875 0 Z M 48.640625 0 L 48.390625 -3.6875 L 52.5625 -5.046875 C 52.664062 -5.578125 52.742188 -6.285156 52.796875 -7.171875 C 52.847656 -8.054688 52.890625 -9.03125 52.921875 -10.09375 C 52.953125 -11.164062 52.96875 -12.15625 52.96875 -13.0625 L 52.796875 -19.875 C 52.796875 -21.90625 52.5 -23.546875 51.90625 -24.796875 C 51.320312 -26.054688 50.523438 -26.960938 49.515625 -27.515625 C 48.503906 -28.078125 47.382812 -28.359375 46.15625 -28.359375 C 44.875 -28.359375 43.628906 -28.078125 42.421875 -27.515625 C 41.222656 -26.960938 40.195312 -26.125 39.34375 -25 L 37.015625 -28.046875 C 38.941406 -30.609375 40.984375 -32.539062 43.140625 -33.84375 C 45.304688 -35.15625 47.644531 -35.8125 50.15625 -35.8125 C 52.71875 -35.8125 54.972656 -35.25 56.921875 -34.125 C 58.878906 -33.007812 60.390625 -31.367188 61.453125 -29.203125 C 62.523438 -27.035156 63.0625 -24.457031 63.0625 -21.46875 L 63.21875 -13.140625 C 63.21875 -11.378906 63.242188 -9.695312 63.296875 -8.09375 C 63.347656 -6.488281 63.457031 -5.472656 63.625 -5.046875 L 68.59375 -3.6875 L 68.34375 0 Z M 48.640625 0 "/></g></g></g><g fill="#435ebe" fill-opacity="1"><g transform="translate(468.510616, 145.680079)"><g><path d="M 1.28125 17.625 L 1.046875 13.9375 L 6.015625 12.578125 C 6.015625 12.253906 6.039062 11.582031 6.09375 10.5625 C 6.144531 9.550781 6.195312 8.328125 6.25 6.890625 C 6.300781 5.453125 6.351562 3.847656 6.40625 2.078125 C 6.457031 0.316406 6.484375 -1.441406 6.484375 -3.203125 L 6.65625 -19.15625 C 6.65625 -20.695312 6.597656 -22.09375 6.484375 -23.34375 C 6.378906 -24.601562 6.191406 -25.929688 5.921875 -27.328125 L 0.796875 -28.4375 L 0.796875 -32.046875 L 14.90625 -35.65625 L 17.140625 -34.296875 L 16.5 -29.40625 L 16.75 -29.328125 C 18.03125 -31.304688 19.628906 -32.878906 21.546875 -34.046875 C 23.472656 -35.222656 25.503906 -35.8125 27.640625 -35.8125 C 30.203125 -35.8125 32.59375 -35.15625 34.8125 -33.84375 C 37.03125 -32.539062 38.832031 -30.644531 40.21875 -28.15625 C 41.613281 -25.675781 42.3125 -22.644531 42.3125 -19.0625 C 42.3125 -15.59375 41.507812 -12.363281 39.90625 -9.375 C 38.300781 -6.382812 36.015625 -3.976562 33.046875 -2.15625 C 30.085938 -0.34375 26.601562 0.5625 22.59375 0.5625 C 21.6875 0.5625 20.738281 0.476562 19.75 0.3125 C 18.757812 0.15625 17.8125 -0.0820312 16.90625 -0.40625 L 16.90625 4.640625 C 16.90625 6.410156 16.941406 8.066406 17.015625 9.609375 C 17.097656 11.160156 17.171875 12.148438 17.234375 12.578125 L 23.796875 13.859375 L 23.5625 17.625 Z M 22.671875 -5.125 C 24.328125 -5.125 25.78125 -5.507812 27.03125 -6.28125 C 28.289062 -7.0625 29.296875 -8.304688 30.046875 -10.015625 C 30.796875 -11.722656 31.144531 -13.910156 31.09375 -16.578125 C 31.144531 -19.359375 30.769531 -21.585938 29.96875 -23.265625 C 29.164062 -24.953125 28.148438 -26.195312 26.921875 -27 C 25.691406 -27.800781 24.359375 -28.203125 22.921875 -28.203125 C 21.796875 -28.203125 20.710938 -27.921875 19.671875 -27.359375 C 18.628906 -26.796875 17.707031 -26.035156 16.90625 -25.078125 L 16.90625 -6.8125 C 17.707031 -6.332031 18.613281 -5.929688 19.625 -5.609375 C 20.644531 -5.285156 21.660156 -5.125 22.671875 -5.125 Z M 22.671875 -5.125 "/></g></g></g><g fill="#435ebe" fill-opacity="1"><g transform="translate(509.675919, 145.680079)"><g><path d="M 21.640625 0.640625 C 17.898438 0.640625 14.613281 -0.117188 11.78125 -1.640625 C 8.945312 -3.160156 6.726562 -5.269531 5.125 -7.96875 C 3.519531 -10.664062 2.71875 -13.753906 2.71875 -17.234375 C 2.71875 -21.179688 3.625 -24.539062 5.4375 -27.3125 C 7.257812 -30.09375 9.640625 -32.203125 12.578125 -33.640625 C 15.515625 -35.085938 18.640625 -35.8125 21.953125 -35.8125 C 25.535156 -35.8125 28.675781 -35.0625 31.375 -33.5625 C 34.070312 -32.070312 36.179688 -29.976562 37.703125 -27.28125 C 39.222656 -24.582031 39.984375 -21.5 39.984375 -18.03125 C 39.984375 -14.5 39.15625 -11.332031 37.5 -8.53125 C 35.84375 -5.726562 33.640625 -3.5 30.890625 -1.84375 C 28.140625 -0.1875 25.054688 0.640625 21.640625 0.640625 Z M 22.4375 -4.484375 C 23.769531 -4.484375 24.898438 -4.910156 25.828125 -5.765625 C 26.765625 -6.617188 27.488281 -7.875 28 -9.53125 C 28.507812 -11.1875 28.765625 -13.164062 28.765625 -15.46875 C 28.765625 -20.0625 28.03125 -23.800781 26.5625 -26.6875 C 25.09375 -29.570312 23.128906 -31.015625 20.671875 -31.015625 C 18.691406 -31.015625 17.101562 -29.984375 15.90625 -27.921875 C 14.707031 -25.867188 14.109375 -23.078125 14.109375 -19.546875 C 14.109375 -16.710938 14.46875 -14.144531 15.1875 -11.84375 C 15.90625 -9.550781 16.890625 -7.75 18.140625 -6.4375 C 19.398438 -5.132812 20.832031 -4.484375 22.4375 -4.484375 Z M 22.4375 -4.484375 "/></g></g></g><g fill="#435ebe" fill-opacity="1"><g transform="translate(548.357626, 145.680079)"><g><path d="M 1.921875 0 L 1.6875 -3.6875 L 6.25 -5.046875 C 6.351562 -5.742188 6.429688 -6.835938 6.484375 -8.328125 C 6.535156 -9.828125 6.585938 -11.5 6.640625 -13.34375 C 6.703125 -15.1875 6.734375 -16.960938 6.734375 -18.671875 L 6.734375 -28.921875 C 6.734375 -30.847656 6.71875 -32.734375 6.6875 -34.578125 C 6.664062 -36.421875 6.640625 -38.171875 6.609375 -39.828125 C 6.578125 -41.484375 6.535156 -42.988281 6.484375 -44.34375 C 6.429688 -45.707031 6.378906 -46.816406 6.328125 -47.671875 L 0.40625 -48.46875 L 0.234375 -51.921875 L 15.390625 -55.84375 L 17.625 -54.484375 C 17.519531 -52.984375 17.441406 -51.484375 17.390625 -49.984375 C 17.335938 -48.492188 17.28125 -46.894531 17.21875 -45.1875 C 17.164062 -43.476562 17.140625 -41.472656 17.140625 -39.171875 C 17.140625 -36.878906 17.140625 -34.160156 17.140625 -31.015625 L 17.0625 -12.90625 C 17.0625 -11.726562 17.070312 -10.59375 17.09375 -9.5 C 17.125 -8.40625 17.164062 -7.46875 17.21875 -6.6875 C 17.28125 -5.914062 17.3125 -5.367188 17.3125 -5.046875 L 22.28125 -3.6875 L 22.03125 0 Z M 45.03125 0 L 31.484375 0 C 30.679688 -1.125 29.945312 -2.097656 29.28125 -2.921875 C 28.613281 -3.753906 27.929688 -4.570312 27.234375 -5.375 L 17.953125 -15.859375 L 15.9375 -15.859375 L 16.03125 -18.828125 L 18.421875 -19.390625 L 30.203125 -30.53125 L 24.921875 -31.40625 L 25.15625 -35.171875 L 42.953125 -35.171875 L 43.1875 -31.40625 L 37.90625 -30.453125 L 24.671875 -19.390625 L 25.5625 -23.078125 L 37.8125 -9.046875 C 38.832031 -7.878906 39.726562 -6.894531 40.5 -6.09375 C 41.28125 -5.289062 41.851562 -4.703125 42.21875 -4.328125 L 45.265625 -3.6875 Z M 45.03125 0 "/></g></g></g><g fill="#435ebe" fill-opacity="1"><g transform="translate(588.962114, 145.680079)"><g><path d="M 20.671875 0.640625 C 17.203125 0.640625 14.117188 -0.128906 11.421875 -1.671875 C 8.722656 -3.222656 6.609375 -5.332031 5.078125 -8 C 3.554688 -10.675781 2.796875 -13.695312 2.796875 -17.0625 C 2.796875 -20.800781 3.648438 -24.070312 5.359375 -26.875 C 7.078125 -29.6875 9.3125 -31.890625 12.0625 -33.484375 C 14.8125 -35.085938 17.757812 -35.863281 20.90625 -35.8125 C 25.664062 -35.8125 29.328125 -34.351562 31.890625 -31.4375 C 34.453125 -28.53125 35.734375 -24.753906 35.734375 -20.109375 L 35.734375 -18.1875 L 12.171875 -18.1875 L 12.171875 -22.359375 L 27.796875 -22.359375 L 26.59375 -20.4375 L 26.59375 -23.234375 C 26.59375 -25.691406 26.03125 -27.664062 24.90625 -29.15625 C 23.789062 -30.65625 22.242188 -31.40625 20.265625 -31.40625 C 18.984375 -31.40625 17.796875 -31.03125 16.703125 -30.28125 C 15.609375 -29.539062 14.753906 -28.40625 14.140625 -26.875 C 13.523438 -25.351562 13.21875 -23.445312 13.21875 -21.15625 L 13.21875 -19.46875 C 13.21875 -15.78125 14.234375 -12.785156 16.265625 -10.484375 C 18.296875 -8.191406 20.992188 -7.046875 24.359375 -7.046875 C 26.171875 -7.046875 27.820312 -7.378906 29.3125 -8.046875 C 30.8125 -8.710938 32.257812 -9.847656 33.65625 -11.453125 L 36.140625 -9.140625 C 34.640625 -5.929688 32.523438 -3.5 29.796875 -1.84375 C 27.078125 -0.1875 24.035156 0.640625 20.671875 0.640625 Z M 20.671875 0.640625 "/></g></g></g><g fill="#435ebe" fill-opacity="1"><g transform="translate(623.157288, 145.680079)"><g><path d="M 1.609375 0 L 1.359375 -3.6875 L 6.328125 -5.046875 C 6.378906 -5.265625 6.429688 -5.757812 6.484375 -6.53125 C 6.535156 -7.300781 6.585938 -8.257812 6.640625 -9.40625 C 6.703125 -10.5625 6.734375 -11.78125 6.734375 -13.0625 L 6.8125 -19.0625 C 6.8125 -20.664062 6.753906 -22.09375 6.640625 -23.34375 C 6.535156 -24.601562 6.351562 -25.929688 6.09375 -27.328125 L 0.96875 -28.4375 L 0.96875 -32.046875 L 14.828125 -35.65625 L 16.984375 -34.296875 L 16.671875 -27.96875 L 16.90625 -27.890625 C 18.40625 -30.878906 19.941406 -32.90625 21.515625 -33.96875 C 23.085938 -35.039062 24.726562 -35.578125 26.4375 -35.578125 C 27.882812 -35.578125 29.140625 -35.175781 30.203125 -34.375 C 31.273438 -33.570312 31.8125 -32.316406 31.8125 -30.609375 C 31.8125 -28.898438 31.234375 -27.5625 30.078125 -26.59375 C 28.929688 -25.632812 27.554688 -25.15625 25.953125 -25.15625 C 24.671875 -25.15625 23.523438 -25.367188 22.515625 -25.796875 C 21.503906 -26.222656 20.410156 -27.023438 19.234375 -28.203125 L 21.46875 -28.046875 C 20.613281 -27.453125 19.828125 -26.703125 19.109375 -25.796875 C 18.390625 -24.890625 17.734375 -23.847656 17.140625 -22.671875 L 17.234375 -16.34375 C 17.285156 -14.363281 17.335938 -12.585938 17.390625 -11.015625 C 17.441406 -9.441406 17.492188 -8.132812 17.546875 -7.09375 C 17.597656 -6.050781 17.625 -5.367188 17.625 -5.046875 L 24.59375 -3.84375 L 24.359375 0 Z M 1.609375 0 "/></g></g></g><g fill="#435ebe" fill-opacity="1"><g transform="translate(652.064752, 145.680079)"><g><path d="M 15.625 0.640625 C 13.382812 0.640625 11.164062 0.390625 8.96875 -0.109375 C 6.78125 -0.617188 4.910156 -1.273438 3.359375 -2.078125 L 2.96875 -11.53125 L 8.171875 -11.53125 L 9.859375 -5.765625 C 11.890625 -4.535156 14 -3.921875 16.1875 -3.921875 C 17.84375 -3.921875 19.097656 -4.253906 19.953125 -4.921875 C 20.804688 -5.585938 21.234375 -6.484375 21.234375 -7.609375 C 21.234375 -8.785156 20.765625 -9.785156 19.828125 -10.609375 C 18.890625 -11.441406 16.984375 -12.421875 14.109375 -13.546875 C 10.148438 -14.984375 7.394531 -16.554688 5.84375 -18.265625 C 4.300781 -19.972656 3.53125 -22.109375 3.53125 -24.671875 C 3.53125 -26.867188 4.195312 -28.804688 5.53125 -30.484375 C 6.863281 -32.171875 8.734375 -33.476562 11.140625 -34.40625 C 13.546875 -35.34375 16.320312 -35.8125 19.46875 -35.8125 C 21.175781 -35.8125 22.910156 -35.648438 24.671875 -35.328125 C 26.441406 -35.015625 27.910156 -34.585938 29.078125 -34.046875 L 29.96875 -24.765625 L 24.84375 -24.765625 L 23.078125 -30.453125 C 22.546875 -30.765625 21.890625 -31.015625 21.109375 -31.203125 C 20.335938 -31.390625 19.601562 -31.484375 18.90625 -31.484375 C 17.300781 -31.484375 16.019531 -31.132812 15.0625 -30.4375 C 14.101562 -29.75 13.625 -28.816406 13.625 -27.640625 C 13.625 -26.410156 14.207031 -25.351562 15.375 -24.46875 C 16.550781 -23.59375 18.691406 -22.515625 21.796875 -21.234375 C 25.316406 -19.785156 27.820312 -18.25 29.3125 -16.625 C 30.8125 -15 31.5625 -12.984375 31.5625 -10.578125 C 31.5625 -7.210938 30.078125 -4.5 27.109375 -2.4375 C 24.148438 -0.382812 20.320312 0.640625 15.625 0.640625 Z M 15.625 0.640625 "/></g></g></g><g fill="#435ebe" fill-opacity="1"><g transform="translate(681.53307, 145.680079)"><g><path d="M 15.0625 0.640625 C 12.601562 0.640625 10.476562 0.109375 8.6875 -0.953125 C 6.90625 -2.023438 5.546875 -3.304688 4.609375 -4.796875 C 3.671875 -6.296875 3.203125 -7.710938 3.203125 -9.046875 C 3.203125 -11.023438 3.800781 -12.65625 5 -13.9375 C 6.207031 -15.21875 8.066406 -16.234375 10.578125 -16.984375 L 23.15625 -20.671875 L 23.15625 -23.5625 C 23.15625 -24.675781 22.796875 -25.726562 22.078125 -26.71875 C 21.359375 -27.707031 20.410156 -28.519531 19.234375 -29.15625 C 18.054688 -29.800781 16.800781 -30.125 15.46875 -30.125 C 14.613281 -30.125 14.007812 -29.921875 13.65625 -29.515625 C 13.3125 -29.117188 13.085938 -28.332031 12.984375 -27.15625 L 12.578125 -22.28125 C 9.910156 -21.738281 7.734375 -21.828125 6.046875 -22.546875 C 4.367188 -23.273438 3.53125 -24.46875 3.53125 -26.125 C 3.53125 -27.132812 4.0625 -28.171875 5.125 -29.234375 C 6.195312 -30.304688 7.519531 -31.3125 9.09375 -32.25 C 10.664062 -33.1875 12.28125 -33.988281 13.9375 -34.65625 C 15.59375 -35.320312 17.0625 -35.707031 18.34375 -35.8125 C 23.050781 -35.8125 26.804688 -34.726562 29.609375 -32.5625 C 32.410156 -30.40625 33.8125 -27.507812 33.8125 -23.875 L 33.578125 -12.734375 C 33.578125 -11.242188 33.613281 -10.082031 33.6875 -9.25 C 33.769531 -8.425781 33.945312 -7.75 34.21875 -7.21875 L 39.421875 -6.25 L 39.421875 -2.890625 L 34.21875 -0.5625 C 33.300781 -0.1875 32.425781 0.101562 31.59375 0.3125 C 30.769531 0.53125 29.988281 0.640625 29.25 0.640625 C 27.164062 0.640625 25.695312 -0.425781 24.84375 -2.5625 L 23.46875 -6.25 L 25.15625 -5.84375 C 23.5 -3.8125 21.800781 -2.222656 20.0625 -1.078125 C 18.332031 0.0664062 16.664062 0.640625 15.0625 0.640625 Z M 19.15625 -6.5625 C 19.894531 -6.5625 20.613281 -6.707031 21.3125 -7 C 22.007812 -7.300781 22.648438 -7.742188 23.234375 -8.328125 L 23.234375 -16.1875 L 17.78125 -15.21875 C 16.5 -15.007812 15.566406 -14.582031 14.984375 -13.9375 C 14.398438 -13.300781 14.109375 -12.472656 14.109375 -11.453125 C 14.109375 -10.171875 14.597656 -9.035156 15.578125 -8.046875 C 16.566406 -7.054688 17.757812 -6.5625 19.15625 -6.5625 Z M 19.15625 -6.5625 "/></g></g></g><g fill="#435ebe" fill-opacity="1"><g transform="translate(717.570909, 145.680079)"><g><path d="M 1.515625 0 L 1.28125 -3.6875 L 6.25 -5.046875 C 6.300781 -5.265625 6.351562 -5.742188 6.40625 -6.484375 C 6.457031 -7.234375 6.507812 -8.179688 6.5625 -9.328125 C 6.625 -10.484375 6.65625 -11.726562 6.65625 -13.0625 L 6.734375 -19.15625 C 6.734375 -20.8125 6.675781 -22.238281 6.5625 -23.4375 C 6.457031 -24.632812 6.273438 -25.929688 6.015625 -27.328125 L 0.875 -28.4375 L 0.875 -32.046875 L 14.984375 -35.65625 L 17.234375 -34.296875 L 16.75 -29.5625 L 16.984375 -29.484375 C 18.640625 -31.617188 20.46875 -33.207031 22.46875 -34.25 C 24.476562 -35.289062 26.578125 -35.8125 28.765625 -35.8125 C 31.054688 -35.8125 33.109375 -35.25 34.921875 -34.125 C 36.742188 -33.007812 38.175781 -31.367188 39.21875 -29.203125 C 40.257812 -27.035156 40.78125 -24.429688 40.78125 -21.390625 L 40.78125 -13.140625 C 40.78125 -11.328125 40.804688 -9.628906 40.859375 -8.046875 C 40.910156 -6.472656 41.019531 -5.472656 41.1875 -5.046875 L 46.15625 -3.6875 L 45.90625 0 L 25.796875 0 L 25.5625 -3.6875 L 30.125 -5.046875 C 30.226562 -5.578125 30.304688 -6.269531 30.359375 -7.125 C 30.421875 -7.976562 30.460938 -8.941406 30.484375 -10.015625 C 30.515625 -11.085938 30.53125 -12.101562 30.53125 -13.0625 L 30.53125 -19.796875 C 30.53125 -21.816406 30.222656 -23.453125 29.609375 -24.703125 C 28.992188 -25.960938 28.191406 -26.882812 27.203125 -27.46875 C 26.210938 -28.0625 25.101562 -28.359375 23.875 -28.359375 C 22.539062 -28.359375 21.285156 -28.0625 20.109375 -27.46875 C 18.929688 -26.882812 17.890625 -26.035156 16.984375 -24.921875 L 16.984375 -13.140625 C 16.984375 -11.328125 17.023438 -9.628906 17.109375 -8.046875 C 17.191406 -6.472656 17.3125 -5.472656 17.46875 -5.046875 L 22.28125 -3.6875 L 22.03125 0 Z M 1.515625 0 "/></g></g></g></svg>