<svg xmlns="http://www.w3.org/2000/svg" xmlns:xlink="http://www.w3.org/1999/xlink" width="1920" zoomAndPan="magnify" viewBox="0 0 1440 809.999993" height="1080" preserveAspectRatio="xMidYMid meet" version="1.0"><defs><g/></defs><g fill="#435ebe" fill-opacity="1"><g transform="translate(229.319546, 519.473952)"><g><path d="M 108.203125 0 L 77.875 0 L 72.6875 -34.703125 L 35.796875 -34.703125 L 30.609375 0 L 3 0 L 33.609375 -191.28125 L 77.609375 -191.28125 Z M 39.625 -60.65625 L 68.578125 -60.65625 L 54.109375 -157.390625 Z M 39.625 -60.65625 "/></g></g></g><g fill="#435ebe" fill-opacity="1"><g transform="translate(356.924229, 519.473952)"><g><path d="M 7.109375 -145.375 C 7.109375 -160.851562 10.796875 -172.738281 18.171875 -181.03125 C 25.546875 -189.320312 36.613281 -193.46875 51.375 -193.46875 C 66.125 -193.46875 77.1875 -189.320312 84.5625 -181.03125 C 91.945312 -172.738281 95.640625 -160.851562 95.640625 -145.375 L 95.640625 -139.359375 L 67.21875 -139.359375 L 67.21875 -147.28125 C 67.21875 -154.207031 65.894531 -159.082031 63.25 -161.90625 C 60.613281 -164.726562 56.925781 -166.140625 52.1875 -166.140625 C 47.457031 -166.140625 43.769531 -164.726562 41.125 -161.90625 C 38.476562 -159.082031 37.15625 -154.207031 37.15625 -147.28125 C 37.15625 -140.71875 38.613281 -134.929688 41.53125 -129.921875 C 44.445312 -124.921875 48.085938 -120.1875 52.453125 -115.71875 C 56.828125 -111.257812 61.519531 -106.796875 66.53125 -102.328125 C 71.539062 -97.867188 76.234375 -92.992188 80.609375 -87.703125 C 84.984375 -82.421875 88.625 -76.410156 91.53125 -69.671875 C 94.445312 -62.929688 95.90625 -55.007812 95.90625 -45.90625 C 95.90625 -30.425781 92.125 -18.539062 84.5625 -10.25 C 77.007812 -1.957031 65.851562 2.1875 51.09375 2.1875 C 36.34375 2.1875 25.1875 -1.957031 17.625 -10.25 C 10.0625 -18.539062 6.28125 -30.425781 6.28125 -45.90625 L 6.28125 -57.65625 L 34.703125 -57.65625 L 34.703125 -44 C 34.703125 -37.070312 36.113281 -32.238281 38.9375 -29.5 C 41.757812 -26.769531 45.539062 -25.40625 50.28125 -25.40625 C 55.007812 -25.40625 58.785156 -26.769531 61.609375 -29.5 C 64.441406 -32.238281 65.859375 -37.070312 65.859375 -44 C 65.859375 -50.550781 64.398438 -56.332031 61.484375 -61.34375 C 58.566406 -66.351562 54.921875 -71.085938 50.546875 -75.546875 C 46.179688 -80.015625 41.492188 -84.476562 36.484375 -88.9375 C 31.472656 -93.40625 26.78125 -98.28125 22.40625 -103.5625 C 18.03125 -108.84375 14.382812 -114.851562 11.46875 -121.59375 C 8.5625 -128.332031 7.109375 -136.257812 7.109375 -145.375 Z M 7.109375 -145.375 "/></g></g></g><g fill="#435ebe" fill-opacity="1"><g transform="translate(475.511987, 519.473952)"><g><path d="M 7.109375 -145.375 C 7.109375 -160.851562 10.796875 -172.738281 18.171875 -181.03125 C 25.546875 -189.320312 36.613281 -193.46875 51.375 -193.46875 C 66.125 -193.46875 77.1875 -189.320312 84.5625 -181.03125 C 91.945312 -172.738281 95.640625 -160.851562 95.640625 -145.375 L 95.640625 -139.359375 L 67.21875 -139.359375 L 67.21875 -147.28125 C 67.21875 -154.207031 65.894531 -159.082031 63.25 -161.90625 C 60.613281 -164.726562 56.925781 -166.140625 52.1875 -166.140625 C 47.457031 -166.140625 43.769531 -164.726562 41.125 -161.90625 C 38.476562 -159.082031 37.15625 -154.207031 37.15625 -147.28125 C 37.15625 -140.71875 38.613281 -134.929688 41.53125 -129.921875 C 44.445312 -124.921875 48.085938 -120.1875 52.453125 -115.71875 C 56.828125 -111.257812 61.519531 -106.796875 66.53125 -102.328125 C 71.539062 -97.867188 76.234375 -92.992188 80.609375 -87.703125 C 84.984375 -82.421875 88.625 -76.410156 91.53125 -69.671875 C 94.445312 -62.929688 95.90625 -55.007812 95.90625 -45.90625 C 95.90625 -30.425781 92.125 -18.539062 84.5625 -10.25 C 77.007812 -1.957031 65.851562 2.1875 51.09375 2.1875 C 36.34375 2.1875 25.1875 -1.957031 17.625 -10.25 C 10.0625 -18.539062 6.28125 -30.425781 6.28125 -45.90625 L 6.28125 -57.65625 L 34.703125 -57.65625 L 34.703125 -44 C 34.703125 -37.070312 36.113281 -32.238281 38.9375 -29.5 C 41.757812 -26.769531 45.539062 -25.40625 50.28125 -25.40625 C 55.007812 -25.40625 58.785156 -26.769531 61.609375 -29.5 C 64.441406 -32.238281 65.859375 -37.070312 65.859375 -44 C 65.859375 -50.550781 64.398438 -56.332031 61.484375 -61.34375 C 58.566406 -66.351562 54.921875 -71.085938 50.546875 -75.546875 C 46.179688 -80.015625 41.492188 -84.476562 36.484375 -88.9375 C 31.472656 -93.40625 26.78125 -98.28125 22.40625 -103.5625 C 18.03125 -108.84375 14.382812 -114.851562 11.46875 -121.59375 C 8.5625 -128.332031 7.109375 -136.257812 7.109375 -145.375 Z M 7.109375 -145.375 "/></g></g></g><g fill="#435ebe" fill-opacity="1"><g transform="translate(594.099745, 519.473952)"><g><path d="M 40.984375 -110.671875 L 82.25 -110.671875 L 82.25 -83.34375 L 40.984375 -83.34375 L 40.984375 -27.328125 L 92.90625 -27.328125 L 92.90625 0 L 10.9375 0 L 10.9375 -191.28125 L 92.90625 -191.28125 L 92.90625 -163.953125 L 40.984375 -163.953125 Z M 40.984375 -110.671875 "/></g></g></g><g fill="#435ebe" fill-opacity="1"><g transform="translate(711.048101, 519.473952)"><g><path d="M 2.1875 -191.28125 L 95.09375 -191.28125 L 95.09375 -163.953125 L 63.671875 -163.953125 L 63.671875 0 L 33.609375 0 L 33.609375 -163.953125 L 2.1875 -163.953125 Z M 2.1875 -191.28125 "/></g></g></g><g fill="#435ebe" fill-opacity="1"><g transform="translate(824.717571, 519.473952)"><g><path d="M 2.1875 -191.28125 L 95.09375 -191.28125 L 95.09375 -163.953125 L 63.671875 -163.953125 L 63.671875 0 L 33.609375 0 L 33.609375 -163.953125 L 2.1875 -163.953125 Z M 2.1875 -191.28125 "/></g></g></g><g fill="#435ebe" fill-opacity="1"><g transform="translate(938.38704, 519.473952)"><g><path d="M 73.78125 0 C 73.414062 -1.269531 73.050781 -2.453125 72.6875 -3.546875 C 72.320312 -4.640625 72 -6.003906 71.71875 -7.640625 C 71.445312 -9.285156 71.265625 -11.382812 71.171875 -13.9375 C 71.085938 -16.488281 71.046875 -19.675781 71.046875 -23.5 L 71.046875 -53.5625 C 71.046875 -62.488281 69.492188 -68.769531 66.390625 -72.40625 C 63.296875 -76.050781 58.289062 -77.875 51.375 -77.875 L 40.984375 -77.875 L 40.984375 0 L 10.9375 0 L 10.9375 -191.28125 L 56.296875 -191.28125 C 71.953125 -191.28125 83.285156 -187.632812 90.296875 -180.34375 C 97.316406 -173.0625 100.828125 -162.039062 100.828125 -147.28125 L 100.828125 -132.25 C 100.828125 -112.570312 94.269531 -99.640625 81.15625 -93.453125 C 88.800781 -90.359375 94.035156 -85.300781 96.859375 -78.28125 C 99.691406 -71.269531 101.109375 -62.753906 101.109375 -52.734375 L 101.109375 -23.21875 C 101.109375 -18.488281 101.289062 -14.347656 101.65625 -10.796875 C 102.019531 -7.242188 102.925781 -3.644531 104.375 0 Z M 40.984375 -163.953125 L 40.984375 -105.203125 L 52.734375 -105.203125 C 58.378906 -105.203125 62.796875 -106.65625 65.984375 -109.5625 C 69.171875 -112.476562 70.765625 -117.765625 70.765625 -125.421875 L 70.765625 -144.28125 C 70.765625 -151.195312 69.535156 -156.203125 67.078125 -159.296875 C 64.617188 -162.398438 60.75 -163.953125 55.46875 -163.953125 Z M 40.984375 -163.953125 "/></g></g></g><g fill="#435ebe" fill-opacity="1"><g transform="translate(1064.625525, 519.473952)"><g><path d="M 108.203125 0 L 77.875 0 L 72.6875 -34.703125 L 35.796875 -34.703125 L 30.609375 0 L 3 0 L 33.609375 -191.28125 L 77.609375 -191.28125 Z M 39.625 -60.65625 L 68.578125 -60.65625 L 54.109375 -157.390625 Z M 39.625 -60.65625 "/></g></g></g><g fill="#435ebe" fill-opacity="1"><g transform="translate(1192.230167, 519.473952)"><g><path d="M 98.09375 -71.3125 L 98.09375 -45.90625 C 98.09375 -30.425781 94.3125 -18.539062 86.75 -10.25 C 79.195312 -1.957031 68.039062 2.1875 53.28125 2.1875 C 38.53125 2.1875 27.375 -1.957031 19.8125 -10.25 C 12.25 -18.539062 8.46875 -30.425781 8.46875 -45.90625 L 8.46875 -145.375 C 8.46875 -160.851562 12.25 -172.738281 19.8125 -181.03125 C 27.375 -189.320312 38.53125 -193.46875 53.28125 -193.46875 C 68.039062 -193.46875 79.195312 -189.320312 86.75 -181.03125 C 94.3125 -172.738281 98.09375 -160.851562 98.09375 -145.375 L 98.09375 -126.78125 L 69.671875 -126.78125 L 69.671875 -147.28125 C 69.671875 -154.207031 68.257812 -159.082031 65.4375 -161.90625 C 62.613281 -164.726562 58.835938 -166.140625 54.109375 -166.140625 C 49.367188 -166.140625 45.585938 -164.726562 42.765625 -161.90625 C 39.941406 -159.082031 38.53125 -154.207031 38.53125 -147.28125 L 38.53125 -44 C 38.53125 -37.070312 39.941406 -32.238281 42.765625 -29.5 C 45.585938 -26.769531 49.367188 -25.40625 54.109375 -25.40625 C 58.835938 -25.40625 62.613281 -26.769531 65.4375 -29.5 C 68.257812 -32.238281 69.671875 -37.070312 69.671875 -44 L 69.671875 -71.3125 Z M 98.09375 -71.3125 "/></g></g></g><g fill="#435ebe" fill-opacity="1"><g transform="translate(1314.096853, 519.473952)"><g><path d="M 50.28125 -76.234375 L 40.984375 -58.75 L 40.984375 0 L 10.9375 0 L 10.9375 -191.28125 L 40.984375 -191.28125 L 40.984375 -107.9375 L 80.328125 -191.28125 L 110.390625 -191.28125 L 68.578125 -106.015625 L 110.390625 0 L 79.515625 0 Z M 50.28125 -76.234375 "/></g></g></g><path stroke-linecap="butt" transform="matrix(-0.00742815, -0.749963, 0.749963, -0.00742815, 16.328963, 672.89101)" fill="none" stroke-linejoin="miter" d="M -0.000932484 17.499733 L 502.72688 17.499686 " stroke="#435ebe" stroke-width="35" stroke-opacity="1" stroke-miterlimit="4"/><path stroke-linecap="butt" transform="matrix(-0.749993, -0.00329617, 0.00329617, -0.749993, 471.438295, 679.95109)" fill="none" stroke-linejoin="miter" d="M -0.000166195 17.497458 L 605.479695 17.497896 " stroke="#435ebe" stroke-width="35" stroke-opacity="1" stroke-miterlimit="4"/><path stroke-linecap="butt" transform="matrix(0.53033, -0.53033, 0.53033, 0.53033, 12.772499, 294.213639)" fill="none" stroke-linejoin="miter" d="M -0.000251307 17.502914 L 425.269255 17.499232 " stroke="#435ebe" stroke-width="35" stroke-opacity="1" stroke-miterlimit="4"/><path stroke-linecap="butt" transform="matrix(0.53033, 0.53033, -0.53033, 0.53033, 241.694569, 68.737838)" fill="none" stroke-linejoin="miter" d="M 0.0011185 17.500611 L 425.167505 17.496928 " stroke="#435ebe" stroke-width="35" stroke-opacity="1" stroke-miterlimit="4"/><g fill="#435ebe" fill-opacity="1"><g transform="translate(638.922787, 628.011425)"><g><path d="M 25.078125 0.953125 C 22.023438 0.953125 18.703125 0.53125 15.109375 -0.3125 C 11.515625 -1.164062 8.4375 -2.304688 5.875 -3.734375 L 5.34375 -19.53125 L 12.171875 -19.953125 L 15.796875 -8.96875 C 17.285156 -8.039062 18.988281 -7.3125 20.90625 -6.78125 C 22.832031 -6.25 24.6875 -5.984375 26.46875 -5.984375 C 29.664062 -5.984375 32.101562 -6.65625 33.78125 -8 C 35.457031 -9.351562 36.296875 -11.171875 36.296875 -13.453125 C 36.296875 -15.941406 35.5625 -17.929688 34.09375 -19.421875 C 32.632812 -20.921875 30.734375 -22.203125 28.390625 -23.265625 C 26.046875 -24.335938 23.554688 -25.390625 20.921875 -26.421875 C 18.285156 -27.453125 15.789062 -28.695312 13.4375 -30.15625 C 11.09375 -31.613281 9.191406 -33.476562 7.734375 -35.75 C 6.273438 -38.03125 5.546875 -40.984375 5.546875 -44.609375 C 5.546875 -48.453125 6.628906 -51.816406 8.796875 -54.703125 C 10.972656 -57.585938 14.035156 -59.828125 17.984375 -61.421875 C 21.929688 -63.023438 26.503906 -63.828125 31.703125 -63.828125 C 33.335938 -63.828125 35.113281 -63.71875 37.03125 -63.5 C 38.957031 -63.289062 40.804688 -62.953125 42.578125 -62.484375 C 44.359375 -62.023438 45.890625 -61.515625 47.171875 -60.953125 L 48.453125 -45.359375 L 41.625 -44.9375 L 38.21875 -55.390625 C 36.007812 -56.535156 33.484375 -57.109375 30.640625 -57.109375 C 27.710938 -57.109375 25.304688 -56.378906 23.421875 -54.921875 C 21.535156 -53.460938 20.59375 -51.414062 20.59375 -48.78125 C 20.59375 -46.425781 21.335938 -44.484375 22.828125 -42.953125 C 24.328125 -41.429688 26.269531 -40.117188 28.65625 -39.015625 C 31.039062 -37.910156 33.566406 -36.820312 36.234375 -35.75 C 38.898438 -34.6875 41.40625 -33.425781 43.75 -31.96875 C 46.101562 -30.507812 48.023438 -28.675781 49.515625 -26.46875 C 51.015625 -24.257812 51.765625 -21.445312 51.765625 -18.03125 C 51.765625 -14.40625 50.660156 -11.148438 48.453125 -8.265625 C 46.253906 -5.390625 43.144531 -3.132812 39.125 -1.5 C 35.101562 0.132812 30.421875 0.953125 25.078125 0.953125 Z M 25.078125 0.953125 "/></g></g></g><g fill="#435ebe" fill-opacity="1"><g transform="translate(700.780141, 628.011425)"><g><path d="M 4.0625 -62.65625 L 33.515625 -62.65625 C 45.046875 -62.65625 54.046875 -59.96875 60.515625 -54.59375 C 66.992188 -49.21875 70.234375 -41.726562 70.234375 -32.125 C 70.234375 -25.9375 68.703125 -20.40625 65.640625 -15.53125 C 62.578125 -10.65625 58.359375 -6.847656 52.984375 -4.109375 C 47.617188 -1.367188 41.484375 0 34.578125 0 L 4.0625 0 L 3.734375 -5.34375 L 10.5625 -7.046875 C 10.78125 -7.546875 10.957031 -9.34375 11.09375 -12.4375 C 11.238281 -15.53125 11.3125 -19.210938 11.3125 -23.484375 L 11.3125 -39.0625 C 11.3125 -43.550781 11.238281 -47.34375 11.09375 -50.4375 C 10.957031 -53.53125 10.78125 -55.253906 10.5625 -55.609375 L 3.734375 -57.3125 Z M 25.9375 -55.5 C 25.9375 -55.070312 25.914062 -54.164062 25.875 -52.78125 C 25.84375 -51.394531 25.804688 -49.578125 25.765625 -47.328125 C 25.734375 -45.085938 25.71875 -42.332031 25.71875 -39.0625 L 25.71875 -23.484375 C 25.71875 -21.628906 25.734375 -19.6875 25.765625 -17.65625 C 25.804688 -15.632812 25.878906 -13.769531 25.984375 -12.0625 C 26.097656 -10.351562 26.1875 -9 26.25 -8 C 27.894531 -7.71875 29.515625 -7.488281 31.109375 -7.3125 C 32.710938 -7.132812 34.226562 -7.046875 35.65625 -7.046875 C 41.695312 -7.046875 46.265625 -8.785156 49.359375 -12.265625 C 52.460938 -15.753906 54.015625 -21.269531 54.015625 -28.8125 C 54.015625 -33.800781 53.441406 -38.035156 52.296875 -41.515625 C 51.160156 -45.003906 49.59375 -47.816406 47.59375 -49.953125 C 45.601562 -52.085938 43.328125 -53.648438 40.765625 -54.640625 C 38.210938 -55.640625 35.472656 -56.140625 32.546875 -56.140625 C 31.554688 -56.140625 30.488281 -56.085938 29.34375 -55.984375 C 28.207031 -55.878906 27.070312 -55.71875 25.9375 -55.5 Z M 25.9375 -55.5 "/></g></g></g><g fill="#435ebe" fill-opacity="1"><g transform="translate(783.343092, 628.011425)"><g><path d="M 4.0625 0 L 3.734375 -5.34375 L 10.453125 -7.046875 C 10.597656 -7.398438 10.722656 -8.320312 10.828125 -9.8125 C 10.941406 -11.3125 11.03125 -13.253906 11.09375 -15.640625 C 11.164062 -18.023438 11.203125 -20.640625 11.203125 -23.484375 L 11.203125 -39.0625 C 11.203125 -42.050781 11.164062 -44.738281 11.09375 -47.125 C 11.03125 -49.507812 10.941406 -51.460938 10.828125 -52.984375 C 10.722656 -54.515625 10.597656 -55.390625 10.453125 -55.609375 L 3.734375 -57.3125 L 4.0625 -62.65625 L 32.765625 -62.65625 L 33.09375 -57.3125 L 26.25 -55.609375 C 26.113281 -55.328125 25.988281 -54.421875 25.875 -52.890625 C 25.769531 -51.359375 25.695312 -49.398438 25.65625 -47.015625 C 25.625 -44.628906 25.609375 -41.976562 25.609375 -39.0625 L 25.609375 -23.484375 C 25.609375 -20.703125 25.625 -18.140625 25.65625 -15.796875 C 25.695312 -13.453125 25.769531 -11.515625 25.875 -9.984375 C 25.988281 -8.453125 26.113281 -7.472656 26.25 -7.046875 L 33.09375 -5.34375 L 32.765625 0 Z M 4.0625 0 "/></g></g></g><g fill="#435ebe" fill-opacity="1"><g transform="translate(827.269837, 628.011425)"><g><path d="M 20.8125 0.859375 C 17.820312 0.859375 14.867188 0.519531 11.953125 -0.15625 C 9.035156 -0.832031 6.546875 -1.707031 4.484375 -2.78125 L 3.953125 -15.375 L 10.890625 -15.375 L 13.125 -7.6875 C 15.832031 -6.050781 18.644531 -5.234375 21.5625 -5.234375 C 23.769531 -5.234375 25.441406 -5.675781 26.578125 -6.5625 C 27.710938 -7.445312 28.28125 -8.640625 28.28125 -10.140625 C 28.28125 -11.703125 27.65625 -13.035156 26.40625 -14.140625 C 25.164062 -15.242188 22.625 -16.539062 18.78125 -18.03125 C 13.519531 -19.957031 9.859375 -22.054688 7.796875 -24.328125 C 5.734375 -26.609375 4.703125 -29.457031 4.703125 -32.875 C 4.703125 -35.789062 5.585938 -38.367188 7.359375 -40.609375 C 9.140625 -42.847656 11.628906 -44.585938 14.828125 -45.828125 C 18.035156 -47.078125 21.738281 -47.703125 25.9375 -47.703125 C 28.21875 -47.703125 30.53125 -47.488281 32.875 -47.0625 C 35.21875 -46.644531 37.175781 -46.078125 38.75 -45.359375 L 39.921875 -32.984375 L 33.09375 -32.984375 L 30.734375 -40.5625 C 30.023438 -40.988281 29.15625 -41.328125 28.125 -41.578125 C 27.09375 -41.828125 26.113281 -41.953125 25.1875 -41.953125 C 23.050781 -41.953125 21.34375 -41.488281 20.0625 -40.5625 C 18.78125 -39.632812 18.140625 -38.390625 18.140625 -36.828125 C 18.140625 -35.191406 18.921875 -33.785156 20.484375 -32.609375 C 22.054688 -31.429688 24.90625 -29.988281 29.03125 -28.28125 C 33.726562 -26.363281 37.070312 -24.316406 39.0625 -22.140625 C 41.050781 -19.972656 42.046875 -17.289062 42.046875 -14.09375 C 42.046875 -9.601562 40.070312 -5.988281 36.125 -3.25 C 32.175781 -0.507812 27.070312 0.859375 20.8125 0.859375 Z M 20.8125 0.859375 "/></g></g></g><g fill="#435ebe" fill-opacity="1"><g transform="translate(878.987863, 628.011425)"><g><path d="M 1.703125 0 L 1.390625 -5.015625 L 8.328125 -6.71875 C 8.398438 -7.5 8.488281 -8.867188 8.59375 -10.828125 C 8.695312 -12.785156 8.785156 -15.046875 8.859375 -17.609375 C 8.929688 -20.171875 8.96875 -22.660156 8.96875 -25.078125 L 8.96875 -38.53125 C 8.96875 -41.019531 8.945312 -43.472656 8.90625 -45.890625 C 8.875 -48.316406 8.835938 -50.648438 8.796875 -52.890625 C 8.765625 -55.128906 8.710938 -57.15625 8.640625 -58.96875 C 8.566406 -60.78125 8.460938 -62.289062 8.328125 -63.5 L 0.421875 -64.578125 L 0.21875 -69.171875 L 20.59375 -74.390625 L 23.59375 -72.578125 C 23.445312 -69.585938 23.335938 -66.6875 23.265625 -63.875 C 23.191406 -61.070312 23.140625 -57.890625 23.109375 -54.328125 C 23.078125 -50.765625 23.0625 -46.425781 23.0625 -41.3125 L 22.953125 -25.609375 C 22.953125 -20.628906 22.984375 -16.414062 23.046875 -12.96875 C 23.117188 -9.519531 23.226562 -7.4375 23.375 -6.71875 L 30.3125 -5.015625 L 30.09375 0 Z M 1.703125 0 "/></g></g></g><g fill="#435ebe" fill-opacity="1"><g transform="translate(917.898305, 628.011425)"><g><path d="M 20.0625 0.859375 C 16.789062 0.859375 13.960938 0.144531 11.578125 -1.28125 C 9.191406 -2.707031 7.375 -4.414062 6.125 -6.40625 C 4.882812 -8.394531 4.265625 -10.28125 4.265625 -12.0625 C 4.265625 -14.695312 5.066406 -16.867188 6.671875 -18.578125 C 8.273438 -20.285156 10.75 -21.632812 14.09375 -22.625 L 30.84375 -27.53125 L 30.84375 -31.375 C 30.84375 -32.875 30.363281 -34.28125 29.40625 -35.59375 C 28.445312 -36.914062 27.179688 -38 25.609375 -38.84375 C 24.046875 -39.695312 22.375 -40.125 20.59375 -40.125 C 19.457031 -40.125 18.65625 -39.859375 18.1875 -39.328125 C 17.726562 -38.796875 17.429688 -37.75 17.296875 -36.1875 L 16.75 -29.671875 C 13.195312 -28.960938 10.300781 -29.085938 8.0625 -30.046875 C 5.820312 -31.003906 4.703125 -32.585938 4.703125 -34.796875 C 4.703125 -36.148438 5.410156 -37.535156 6.828125 -38.953125 C 8.253906 -40.378906 10.015625 -41.710938 12.109375 -42.953125 C 14.210938 -44.203125 16.363281 -45.269531 18.5625 -46.15625 C 20.769531 -47.050781 22.726562 -47.566406 24.4375 -47.703125 C 30.695312 -47.703125 35.695312 -46.257812 39.4375 -43.375 C 43.175781 -40.5 45.046875 -36.644531 45.046875 -31.8125 L 44.71875 -16.96875 C 44.71875 -14.976562 44.769531 -13.429688 44.875 -12.328125 C 44.988281 -11.222656 45.222656 -10.316406 45.578125 -9.609375 L 52.515625 -8.328125 L 52.515625 -3.84375 L 45.578125 -0.75 C 44.367188 -0.25 43.210938 0.140625 42.109375 0.421875 C 41.003906 0.710938 39.953125 0.859375 38.953125 0.859375 C 36.179688 0.859375 34.226562 -0.566406 33.09375 -3.421875 L 31.265625 -8.328125 L 33.515625 -7.796875 C 31.304688 -5.085938 29.046875 -2.96875 26.734375 -1.4375 C 24.421875 0.09375 22.195312 0.859375 20.0625 0.859375 Z M 25.515625 -8.75 C 26.503906 -8.75 27.460938 -8.941406 28.390625 -9.328125 C 29.316406 -9.722656 30.171875 -10.3125 30.953125 -11.09375 L 30.953125 -21.5625 L 23.6875 -20.28125 C 21.988281 -20 20.742188 -19.429688 19.953125 -18.578125 C 19.171875 -17.722656 18.78125 -16.617188 18.78125 -15.265625 C 18.78125 -13.554688 19.4375 -12.039062 20.75 -10.71875 C 22.070312 -9.40625 23.660156 -8.75 25.515625 -8.75 Z M 25.515625 -8.75 "/></g></g></g><g fill="#435ebe" fill-opacity="1"><g transform="translate(978.36818, 628.011425)"><g><path d="M 2.140625 0 L 1.8125 -4.90625 L 8.4375 -6.71875 C 8.5 -7.007812 8.566406 -7.671875 8.640625 -8.703125 C 8.710938 -9.734375 8.785156 -11.015625 8.859375 -12.546875 C 8.929688 -14.078125 8.96875 -15.691406 8.96875 -17.390625 L 9.078125 -25.40625 C 9.078125 -26.820312 9.039062 -28.117188 8.96875 -29.296875 C 8.894531 -30.472656 8.785156 -31.644531 8.640625 -32.8125 C 8.503906 -33.988281 8.328125 -35.179688 8.109375 -36.390625 L 1.28125 -37.890625 L 1.28125 -42.6875 L 20.0625 -47.5 L 23.0625 -45.6875 L 22.421875 -39.484375 L 22.734375 -39.390625 C 25.015625 -42.304688 27.378906 -44.421875 29.828125 -45.734375 C 32.285156 -47.046875 34.867188 -47.703125 37.578125 -47.703125 C 40.347656 -47.703125 42.941406 -47.007812 45.359375 -45.625 C 47.773438 -44.238281 49.710938 -42.140625 51.171875 -39.328125 C 52.640625 -36.515625 53.375 -32.90625 53.375 -28.5 L 53.578125 -17.5 C 53.578125 -15.15625 53.613281 -12.914062 53.6875 -10.78125 C 53.757812 -8.644531 53.898438 -7.289062 54.109375 -6.71875 L 59.984375 -4.90625 L 59.671875 0 L 34.265625 0 L 33.9375 -4.90625 L 39.390625 -6.71875 C 39.523438 -7.4375 39.628906 -8.363281 39.703125 -9.5 C 39.773438 -10.632812 39.828125 -11.914062 39.859375 -13.34375 C 39.898438 -14.769531 39.921875 -16.117188 39.921875 -17.390625 L 39.8125 -27.4375 C 39.8125 -29.988281 39.4375 -32.007812 38.6875 -33.5 C 37.945312 -35 36.953125 -36.085938 35.703125 -36.765625 C 34.453125 -37.441406 33.046875 -37.78125 31.484375 -37.78125 C 29.847656 -37.78125 28.242188 -37.367188 26.671875 -36.546875 C 25.109375 -35.734375 23.796875 -34.613281 22.734375 -33.1875 L 22.734375 -17.5 C 22.734375 -15.15625 22.785156 -12.914062 22.890625 -10.78125 C 23.003906 -8.644531 23.164062 -7.289062 23.375 -6.71875 L 29.25 -4.90625 L 28.921875 0 Z M 64.78125 0 L 64.46875 -4.90625 L 70.015625 -6.71875 C 70.160156 -7.4375 70.265625 -8.378906 70.328125 -9.546875 C 70.398438 -10.722656 70.453125 -12.019531 70.484375 -13.4375 C 70.523438 -14.863281 70.546875 -16.179688 70.546875 -17.390625 L 70.34375 -26.46875 C 70.34375 -29.175781 69.945312 -31.363281 69.15625 -33.03125 C 68.375 -34.707031 67.304688 -35.914062 65.953125 -36.65625 C 64.609375 -37.40625 63.117188 -37.78125 61.484375 -37.78125 C 59.773438 -37.78125 58.117188 -37.40625 56.515625 -36.65625 C 54.910156 -35.914062 53.539062 -34.796875 52.40625 -33.296875 L 49.3125 -37.359375 C 51.875 -40.773438 54.59375 -43.351562 57.46875 -45.09375 C 60.351562 -46.832031 63.46875 -47.703125 66.8125 -47.703125 C 70.226562 -47.703125 73.234375 -46.957031 75.828125 -45.46875 C 78.429688 -43.976562 80.441406 -41.789062 81.859375 -38.90625 C 83.285156 -36.019531 84 -32.585938 84 -28.609375 L 84.21875 -17.5 C 84.21875 -15.15625 84.25 -12.914062 84.3125 -10.78125 C 84.382812 -8.644531 84.53125 -7.289062 84.75 -6.71875 L 91.359375 -4.90625 L 91.046875 0 Z M 64.78125 0 "/></g></g></g><g fill="#435ebe" fill-opacity="1"><g transform="translate(495.932768, 712.496363)"><g><path d="M 61.15625 -63.1875 L 63.609375 -44.296875 L 57 -43.765625 L 52.734375 -56.03125 C 52.015625 -56.175781 51.265625 -56.265625 50.484375 -56.296875 C 49.703125 -56.335938 48.847656 -56.359375 47.921875 -56.359375 L 44.296875 -56.359375 C 43.648438 -56.359375 42.914062 -56.359375 42.09375 -56.359375 C 41.28125 -56.359375 40.660156 -56.285156 40.234375 -56.140625 C 40.234375 -55.710938 40.210938 -54.394531 40.171875 -52.1875 C 40.140625 -49.988281 40.109375 -47.359375 40.078125 -44.296875 C 40.046875 -41.234375 40.03125 -38.140625 40.03125 -35.015625 L 40.03125 -25.078125 C 40.03125 -21.097656 40.0625 -17.503906 40.125 -14.296875 C 40.195312 -11.097656 40.269531 -8.679688 40.34375 -7.046875 L 49.625 -5.546875 L 49.3125 0 L 16.109375 0 L 15.796875 -5.546875 L 25.078125 -7.046875 C 25.148438 -8.679688 25.222656 -11.097656 25.296875 -14.296875 C 25.367188 -17.503906 25.40625 -21.097656 25.40625 -25.078125 L 25.40625 -35.015625 C 25.40625 -38.140625 25.382812 -41.234375 25.34375 -44.296875 C 25.3125 -47.359375 25.296875 -49.988281 25.296875 -52.1875 C 25.296875 -54.394531 25.257812 -55.710938 25.1875 -56.140625 C 24.757812 -56.285156 24.132812 -56.359375 23.3125 -56.359375 C 22.5 -56.359375 21.773438 -56.359375 21.140625 -56.359375 L 17.390625 -56.359375 C 16.535156 -56.359375 15.664062 -56.335938 14.78125 -56.296875 C 13.894531 -56.265625 13.09375 -56.175781 12.375 -56.03125 L 8.328125 -43.546875 L 1.703125 -44.1875 L 3.953125 -63.1875 C 4.660156 -63.1875 5.671875 -63.148438 6.984375 -63.078125 C 8.304688 -63.003906 9.695312 -62.929688 11.15625 -62.859375 C 12.613281 -62.796875 14.035156 -62.742188 15.421875 -62.703125 C 16.804688 -62.671875 18 -62.65625 19 -62.65625 L 46.109375 -62.65625 C 47.109375 -62.65625 48.28125 -62.671875 49.625 -62.703125 C 50.976562 -62.742188 52.398438 -62.796875 53.890625 -62.859375 C 55.390625 -62.929688 56.78125 -63.003906 58.0625 -63.078125 C 59.34375 -63.148438 60.375 -63.1875 61.15625 -63.1875 Z M 61.15625 -63.1875 "/></g></g></g><g fill="#435ebe" fill-opacity="1"><g transform="translate(568.46311, 712.496363)"><g><path d="M 28.8125 0.859375 C 23.832031 0.859375 19.457031 -0.15625 15.6875 -2.1875 C 11.914062 -4.21875 8.960938 -7.03125 6.828125 -10.625 C 4.691406 -14.21875 3.625 -18.328125 3.625 -22.953125 C 3.625 -28.210938 4.832031 -32.691406 7.25 -36.390625 C 9.675781 -40.097656 12.84375 -42.910156 16.75 -44.828125 C 20.664062 -46.742188 24.832031 -47.703125 29.25 -47.703125 C 34.007812 -47.703125 38.1875 -46.707031 41.78125 -44.71875 C 45.375 -42.726562 48.1875 -39.9375 50.21875 -36.34375 C 52.25 -32.75 53.265625 -28.640625 53.265625 -24.015625 C 53.265625 -19.316406 52.160156 -15.097656 49.953125 -11.359375 C 47.742188 -7.628906 44.804688 -4.660156 41.140625 -2.453125 C 37.484375 -0.242188 33.375 0.859375 28.8125 0.859375 Z M 29.890625 -5.984375 C 31.660156 -5.984375 33.171875 -6.550781 34.421875 -7.6875 C 35.671875 -8.820312 36.628906 -10.492188 37.296875 -12.703125 C 37.972656 -14.910156 38.3125 -17.539062 38.3125 -20.59375 C 38.3125 -26.71875 37.332031 -31.703125 35.375 -35.546875 C 33.425781 -39.390625 30.8125 -41.3125 27.53125 -41.3125 C 24.90625 -41.3125 22.789062 -39.941406 21.1875 -37.203125 C 19.582031 -34.460938 18.78125 -30.742188 18.78125 -26.046875 C 18.78125 -22.273438 19.257812 -18.859375 20.21875 -15.796875 C 21.1875 -12.734375 22.503906 -10.332031 24.171875 -8.59375 C 25.847656 -6.851562 27.753906 -5.984375 29.890625 -5.984375 Z M 29.890625 -5.984375 "/></g></g></g><g fill="#435ebe" fill-opacity="1"><g transform="translate(632.455062, 712.496363)"><g><path d="M 2.140625 0 L 1.8125 -4.90625 L 8.4375 -6.71875 C 8.5 -7.007812 8.566406 -7.671875 8.640625 -8.703125 C 8.710938 -9.734375 8.785156 -11.015625 8.859375 -12.546875 C 8.929688 -14.078125 8.96875 -15.691406 8.96875 -17.390625 L 9.078125 -25.40625 C 9.078125 -26.820312 9.039062 -28.117188 8.96875 -29.296875 C 8.894531 -30.472656 8.785156 -31.644531 8.640625 -32.8125 C 8.503906 -33.988281 8.328125 -35.179688 8.109375 -36.390625 L 1.28125 -37.890625 L 1.28125 -42.6875 L 20.0625 -47.5 L 23.0625 -45.6875 L 22.421875 -39.484375 L 22.734375 -39.390625 C 25.015625 -42.304688 27.378906 -44.421875 29.828125 -45.734375 C 32.285156 -47.046875 34.867188 -47.703125 37.578125 -47.703125 C 40.347656 -47.703125 42.941406 -47.007812 45.359375 -45.625 C 47.773438 -44.238281 49.710938 -42.140625 51.171875 -39.328125 C 52.640625 -36.515625 53.375 -32.90625 53.375 -28.5 L 53.578125 -17.5 C 53.578125 -15.15625 53.613281 -12.914062 53.6875 -10.78125 C 53.757812 -8.644531 53.898438 -7.289062 54.109375 -6.71875 L 59.984375 -4.90625 L 59.671875 0 L 34.265625 0 L 33.9375 -4.90625 L 39.390625 -6.71875 C 39.523438 -7.4375 39.628906 -8.363281 39.703125 -9.5 C 39.773438 -10.632812 39.828125 -11.914062 39.859375 -13.34375 C 39.898438 -14.769531 39.921875 -16.117188 39.921875 -17.390625 L 39.8125 -27.4375 C 39.8125 -29.988281 39.4375 -32.007812 38.6875 -33.5 C 37.945312 -35 36.953125 -36.085938 35.703125 -36.765625 C 34.453125 -37.441406 33.046875 -37.78125 31.484375 -37.78125 C 29.847656 -37.78125 28.242188 -37.367188 26.671875 -36.546875 C 25.109375 -35.734375 23.796875 -34.613281 22.734375 -33.1875 L 22.734375 -17.5 C 22.734375 -15.15625 22.785156 -12.914062 22.890625 -10.78125 C 23.003906 -8.644531 23.164062 -7.289062 23.375 -6.71875 L 29.25 -4.90625 L 28.921875 0 Z M 64.78125 0 L 64.46875 -4.90625 L 70.015625 -6.71875 C 70.160156 -7.4375 70.265625 -8.378906 70.328125 -9.546875 C 70.398438 -10.722656 70.453125 -12.019531 70.484375 -13.4375 C 70.523438 -14.863281 70.546875 -16.179688 70.546875 -17.390625 L 70.34375 -26.46875 C 70.34375 -29.175781 69.945312 -31.363281 69.15625 -33.03125 C 68.375 -34.707031 67.304688 -35.914062 65.953125 -36.65625 C 64.609375 -37.40625 63.117188 -37.78125 61.484375 -37.78125 C 59.773438 -37.78125 58.117188 -37.40625 56.515625 -36.65625 C 54.910156 -35.914062 53.539062 -34.796875 52.40625 -33.296875 L 49.3125 -37.359375 C 51.875 -40.773438 54.59375 -43.351562 57.46875 -45.09375 C 60.351562 -46.832031 63.46875 -47.703125 66.8125 -47.703125 C 70.226562 -47.703125 73.234375 -46.957031 75.828125 -45.46875 C 78.429688 -43.976562 80.441406 -41.789062 81.859375 -38.90625 C 83.285156 -36.019531 84 -32.585938 84 -28.609375 L 84.21875 -17.5 C 84.21875 -15.15625 84.25 -12.914062 84.3125 -10.78125 C 84.382812 -8.644531 84.53125 -7.289062 84.75 -6.71875 L 91.359375 -4.90625 L 91.046875 0 Z M 64.78125 0 "/></g></g></g><g fill="#435ebe" fill-opacity="1"><g transform="translate(732.0948, 712.496363)"><g><path d="M 1.703125 23.484375 L 1.390625 18.578125 L 8 16.75 C 8 16.320312 8.035156 15.429688 8.109375 14.078125 C 8.179688 12.734375 8.253906 11.097656 8.328125 9.171875 C 8.398438 7.253906 8.46875 5.117188 8.53125 2.765625 C 8.601562 0.421875 8.640625 -1.921875 8.640625 -4.265625 L 8.859375 -25.515625 C 8.859375 -27.578125 8.785156 -29.441406 8.640625 -31.109375 C 8.503906 -32.785156 8.253906 -34.546875 7.890625 -36.390625 L 1.0625 -37.890625 L 1.0625 -42.6875 L 19.859375 -47.5 L 22.84375 -45.6875 L 21.984375 -39.171875 L 22.3125 -39.0625 C 24.019531 -41.695312 26.148438 -43.796875 28.703125 -45.359375 C 31.265625 -46.921875 33.972656 -47.703125 36.828125 -47.703125 C 40.242188 -47.703125 43.425781 -46.832031 46.375 -45.09375 C 49.332031 -43.351562 51.734375 -40.828125 53.578125 -37.515625 C 55.429688 -34.203125 56.359375 -30.164062 56.359375 -25.40625 C 56.359375 -20.78125 55.289062 -16.472656 53.15625 -12.484375 C 51.019531 -8.503906 47.976562 -5.300781 44.03125 -2.875 C 40.082031 -0.457031 35.4375 0.75 30.09375 0.75 C 28.882812 0.75 27.617188 0.640625 26.296875 0.421875 C 24.984375 0.210938 23.722656 -0.101562 22.515625 -0.53125 L 22.515625 6.1875 C 22.515625 8.539062 22.566406 10.75 22.671875 12.8125 C 22.785156 14.875 22.878906 16.1875 22.953125 16.75 L 31.703125 18.46875 L 31.375 23.484375 Z M 30.203125 -6.828125 C 32.410156 -6.828125 34.347656 -7.34375 36.015625 -8.375 C 37.691406 -9.40625 39.023438 -11.054688 40.015625 -13.328125 C 41.015625 -15.609375 41.476562 -18.53125 41.40625 -22.09375 C 41.476562 -25.789062 40.976562 -28.757812 39.90625 -31 C 38.84375 -33.25 37.492188 -34.90625 35.859375 -35.96875 C 34.222656 -37.039062 32.445312 -37.578125 30.53125 -37.578125 C 29.03125 -37.578125 27.585938 -37.203125 26.203125 -36.453125 C 24.816406 -35.703125 23.585938 -34.6875 22.515625 -33.40625 L 22.515625 -9.078125 C 23.585938 -8.429688 24.796875 -7.894531 26.140625 -7.46875 C 27.492188 -7.039062 28.847656 -6.828125 30.203125 -6.828125 Z M 30.203125 -6.828125 "/></g></g></g><g fill="#435ebe" fill-opacity="1"><g transform="translate(799.395388, 712.496363)"><g><path d="M 28.8125 0.859375 C 23.832031 0.859375 19.457031 -0.15625 15.6875 -2.1875 C 11.914062 -4.21875 8.960938 -7.03125 6.828125 -10.625 C 4.691406 -14.21875 3.625 -18.328125 3.625 -22.953125 C 3.625 -28.210938 4.832031 -32.691406 7.25 -36.390625 C 9.675781 -40.097656 12.84375 -42.910156 16.75 -44.828125 C 20.664062 -46.742188 24.832031 -47.703125 29.25 -47.703125 C 34.007812 -47.703125 38.1875 -46.707031 41.78125 -44.71875 C 45.375 -42.726562 48.1875 -39.9375 50.21875 -36.34375 C 52.25 -32.75 53.265625 -28.640625 53.265625 -24.015625 C 53.265625 -19.316406 52.160156 -15.097656 49.953125 -11.359375 C 47.742188 -7.628906 44.804688 -4.660156 41.140625 -2.453125 C 37.484375 -0.242188 33.375 0.859375 28.8125 0.859375 Z M 29.890625 -5.984375 C 31.660156 -5.984375 33.171875 -6.550781 34.421875 -7.6875 C 35.671875 -8.820312 36.628906 -10.492188 37.296875 -12.703125 C 37.972656 -14.910156 38.3125 -17.539062 38.3125 -20.59375 C 38.3125 -26.71875 37.332031 -31.703125 35.375 -35.546875 C 33.425781 -39.390625 30.8125 -41.3125 27.53125 -41.3125 C 24.90625 -41.3125 22.789062 -39.941406 21.1875 -37.203125 C 19.582031 -34.460938 18.78125 -30.742188 18.78125 -26.046875 C 18.78125 -22.273438 19.257812 -18.859375 20.21875 -15.796875 C 21.1875 -12.734375 22.503906 -10.332031 24.171875 -8.59375 C 25.847656 -6.851562 27.753906 -5.984375 29.890625 -5.984375 Z M 29.890625 -5.984375 "/></g></g></g><g fill="#435ebe" fill-opacity="1"><g transform="translate(863.387331, 712.496363)"><g><path d="M 2.5625 0 L 2.234375 -4.90625 L 8.328125 -6.71875 C 8.460938 -7.644531 8.566406 -9.101562 8.640625 -11.09375 C 8.710938 -13.09375 8.785156 -15.316406 8.859375 -17.765625 C 8.929688 -20.222656 8.96875 -22.59375 8.96875 -24.875 L 8.96875 -38.53125 C 8.96875 -41.09375 8.945312 -43.597656 8.90625 -46.046875 C 8.875 -48.503906 8.835938 -50.835938 8.796875 -53.046875 C 8.765625 -55.253906 8.710938 -57.265625 8.640625 -59.078125 C 8.566406 -60.890625 8.5 -62.363281 8.4375 -63.5 L 0.53125 -64.578125 L 0.3125 -69.171875 L 20.5 -74.390625 L 23.484375 -72.578125 C 23.335938 -70.585938 23.226562 -68.59375 23.15625 -66.59375 C 23.09375 -64.601562 23.023438 -62.46875 22.953125 -60.1875 C 22.878906 -57.914062 22.84375 -55.25 22.84375 -52.1875 C 22.84375 -49.132812 22.84375 -45.507812 22.84375 -41.3125 L 22.734375 -17.1875 C 22.734375 -15.625 22.75 -14.109375 22.78125 -12.640625 C 22.820312 -11.179688 22.878906 -9.9375 22.953125 -8.90625 C 23.023438 -7.875 23.0625 -7.144531 23.0625 -6.71875 L 29.671875 -4.90625 L 29.359375 0 Z M 59.984375 0 L 41.953125 0 C 40.878906 -1.488281 39.894531 -2.785156 39 -3.890625 C 38.113281 -4.992188 37.210938 -6.082031 36.296875 -7.15625 L 23.90625 -21.140625 L 21.234375 -21.140625 L 21.34375 -25.078125 L 24.546875 -25.828125 L 40.234375 -40.671875 L 33.1875 -41.84375 L 33.515625 -46.859375 L 57.203125 -46.859375 L 57.53125 -41.84375 L 50.484375 -40.5625 L 32.875 -25.828125 L 34.046875 -30.734375 L 50.375 -12.0625 C 51.726562 -10.5 52.921875 -9.179688 53.953125 -8.109375 C 54.984375 -7.046875 55.75 -6.265625 56.25 -5.765625 L 60.3125 -4.90625 Z M 59.984375 0 "/></g></g></g><g fill="#435ebe" fill-opacity="1"><g transform="translate(929.940792, 712.496363)"><g><path d="M 27.53125 0.859375 C 22.90625 0.859375 18.796875 -0.171875 15.203125 -2.234375 C 11.609375 -4.304688 8.796875 -7.117188 6.765625 -10.671875 C 4.742188 -14.234375 3.734375 -18.253906 3.734375 -22.734375 C 3.734375 -27.710938 4.867188 -32.066406 7.140625 -35.796875 C 9.421875 -39.535156 12.394531 -42.472656 16.0625 -44.609375 C 19.726562 -46.742188 23.660156 -47.773438 27.859375 -47.703125 C 34.191406 -47.703125 39.066406 -45.765625 42.484375 -41.890625 C 45.898438 -38.015625 47.609375 -32.984375 47.609375 -26.796875 L 47.609375 -24.234375 L 16.21875 -24.234375 L 16.21875 -29.78125 L 37.03125 -29.78125 L 35.4375 -27.21875 L 35.4375 -30.953125 C 35.4375 -34.222656 34.6875 -36.851562 33.1875 -38.84375 C 31.695312 -40.84375 29.632812 -41.84375 27 -41.84375 C 25.289062 -41.84375 23.707031 -41.34375 22.25 -40.34375 C 20.789062 -39.351562 19.648438 -37.84375 18.828125 -35.8125 C 18.015625 -33.78125 17.609375 -31.234375 17.609375 -28.171875 L 17.609375 -25.9375 C 17.609375 -21.03125 18.957031 -17.046875 21.65625 -13.984375 C 24.363281 -10.921875 27.960938 -9.390625 32.453125 -9.390625 C 34.867188 -9.390625 37.070312 -9.832031 39.0625 -10.71875 C 41.050781 -11.613281 42.972656 -13.128906 44.828125 -15.265625 L 48.140625 -12.171875 C 46.148438 -7.898438 43.335938 -4.660156 39.703125 -2.453125 C 36.078125 -0.242188 32.019531 0.859375 27.53125 0.859375 Z M 27.53125 0.859375 "/></g></g></g><g fill="#435ebe" fill-opacity="1"><g transform="translate(987.955862, 712.496363)"><g><path d="M 2.140625 0 L 1.8125 -4.90625 L 8.4375 -6.71875 C 8.5 -7.007812 8.566406 -7.671875 8.640625 -8.703125 C 8.710938 -9.734375 8.785156 -11.015625 8.859375 -12.546875 C 8.929688 -14.078125 8.96875 -15.691406 8.96875 -17.390625 L 9.078125 -25.40625 C 9.078125 -27.539062 9.003906 -29.441406 8.859375 -31.109375 C 8.710938 -32.785156 8.460938 -34.546875 8.109375 -36.390625 L 1.28125 -37.890625 L 1.28125 -42.6875 L 19.75 -47.5 L 22.625 -45.6875 L 22.203125 -37.25 L 22.515625 -37.140625 C 24.515625 -41.128906 26.5625 -43.832031 28.65625 -45.25 C 30.757812 -46.675781 32.945312 -47.390625 35.21875 -47.390625 C 37.144531 -47.390625 38.816406 -46.851562 40.234375 -45.78125 C 41.660156 -44.71875 42.375 -43.046875 42.375 -40.765625 C 42.375 -38.492188 41.609375 -36.71875 40.078125 -35.4375 C 38.546875 -34.15625 36.710938 -33.515625 34.578125 -33.515625 C 32.867188 -33.515625 31.335938 -33.796875 29.984375 -34.359375 C 28.640625 -34.929688 27.179688 -36.003906 25.609375 -37.578125 L 28.609375 -37.359375 C 27.460938 -36.578125 26.410156 -35.578125 25.453125 -34.359375 C 24.492188 -33.148438 23.625 -31.765625 22.84375 -30.203125 L 22.953125 -21.78125 C 23.023438 -19.144531 23.09375 -16.773438 23.15625 -14.671875 C 23.226562 -12.578125 23.300781 -10.832031 23.375 -9.4375 C 23.445312 -8.050781 23.484375 -7.144531 23.484375 -6.71875 L 32.765625 -5.125 L 32.453125 0 Z M 2.140625 0 "/></g></g></g><g fill="#435ebe" fill-opacity="1"><g transform="translate(1038.926761, 712.496363)"><g><path d="M 20.8125 0.859375 C 17.820312 0.859375 14.867188 0.519531 11.953125 -0.15625 C 9.035156 -0.832031 6.546875 -1.707031 4.484375 -2.78125 L 3.953125 -15.375 L 10.890625 -15.375 L 13.125 -7.6875 C 15.832031 -6.050781 18.644531 -5.234375 21.5625 -5.234375 C 23.769531 -5.234375 25.441406 -5.675781 26.578125 -6.5625 C 27.710938 -7.445312 28.28125 -8.640625 28.28125 -10.140625 C 28.28125 -11.703125 27.65625 -13.035156 26.40625 -14.140625 C 25.164062 -15.242188 22.625 -16.539062 18.78125 -18.03125 C 13.519531 -19.957031 9.859375 -22.054688 7.796875 -24.328125 C 5.734375 -26.609375 4.703125 -29.457031 4.703125 -32.875 C 4.703125 -35.789062 5.585938 -38.367188 7.359375 -40.609375 C 9.140625 -42.847656 11.628906 -44.585938 14.828125 -45.828125 C 18.035156 -47.078125 21.738281 -47.703125 25.9375 -47.703125 C 28.21875 -47.703125 30.53125 -47.488281 32.875 -47.0625 C 35.21875 -46.644531 37.175781 -46.078125 38.75 -45.359375 L 39.921875 -32.984375 L 33.09375 -32.984375 L 30.734375 -40.5625 C 30.023438 -40.988281 29.15625 -41.328125 28.125 -41.578125 C 27.09375 -41.828125 26.113281 -41.953125 25.1875 -41.953125 C 23.050781 -41.953125 21.34375 -41.488281 20.0625 -40.5625 C 18.78125 -39.632812 18.140625 -38.390625 18.140625 -36.828125 C 18.140625 -35.191406 18.921875 -33.785156 20.484375 -32.609375 C 22.054688 -31.429688 24.90625 -29.988281 29.03125 -28.28125 C 33.726562 -26.363281 37.070312 -24.316406 39.0625 -22.140625 C 41.050781 -19.972656 42.046875 -17.289062 42.046875 -14.09375 C 42.046875 -9.601562 40.070312 -5.988281 36.125 -3.25 C 32.175781 -0.507812 27.070312 0.859375 20.8125 0.859375 Z M 20.8125 0.859375 "/></g></g></g><g fill="#435ebe" fill-opacity="1"><g transform="translate(1090.644787, 712.496363)"><g><path d="M 20.0625 0.859375 C 16.789062 0.859375 13.960938 0.144531 11.578125 -1.28125 C 9.191406 -2.707031 7.375 -4.414062 6.125 -6.40625 C 4.882812 -8.394531 4.265625 -10.28125 4.265625 -12.0625 C 4.265625 -14.695312 5.066406 -16.867188 6.671875 -18.578125 C 8.273438 -20.285156 10.75 -21.632812 14.09375 -22.625 L 30.84375 -27.53125 L 30.84375 -31.375 C 30.84375 -32.875 30.363281 -34.28125 29.40625 -35.59375 C 28.445312 -36.914062 27.179688 -38 25.609375 -38.84375 C 24.046875 -39.695312 22.375 -40.125 20.59375 -40.125 C 19.457031 -40.125 18.65625 -39.859375 18.1875 -39.328125 C 17.726562 -38.796875 17.429688 -37.75 17.296875 -36.1875 L 16.75 -29.671875 C 13.195312 -28.960938 10.300781 -29.085938 8.0625 -30.046875 C 5.820312 -31.003906 4.703125 -32.585938 4.703125 -34.796875 C 4.703125 -36.148438 5.410156 -37.535156 6.828125 -38.953125 C 8.253906 -40.378906 10.015625 -41.710938 12.109375 -42.953125 C 14.210938 -44.203125 16.363281 -45.269531 18.5625 -46.15625 C 20.769531 -47.050781 22.726562 -47.566406 24.4375 -47.703125 C 30.695312 -47.703125 35.695312 -46.257812 39.4375 -43.375 C 43.175781 -40.5 45.046875 -36.644531 45.046875 -31.8125 L 44.71875 -16.96875 C 44.71875 -14.976562 44.769531 -13.429688 44.875 -12.328125 C 44.988281 -11.222656 45.222656 -10.316406 45.578125 -9.609375 L 52.515625 -8.328125 L 52.515625 -3.84375 L 45.578125 -0.75 C 44.367188 -0.25 43.210938 0.140625 42.109375 0.421875 C 41.003906 0.710938 39.953125 0.859375 38.953125 0.859375 C 36.179688 0.859375 34.226562 -0.566406 33.09375 -3.421875 L 31.265625 -8.328125 L 33.515625 -7.796875 C 31.304688 -5.085938 29.046875 -2.96875 26.734375 -1.4375 C 24.421875 0.09375 22.195312 0.859375 20.0625 0.859375 Z M 25.515625 -8.75 C 26.503906 -8.75 27.460938 -8.941406 28.390625 -9.328125 C 29.316406 -9.722656 30.171875 -10.3125 30.953125 -11.09375 L 30.953125 -21.5625 L 23.6875 -20.28125 C 21.988281 -20 20.742188 -19.429688 19.953125 -18.578125 C 19.171875 -17.722656 18.78125 -16.617188 18.78125 -15.265625 C 18.78125 -13.554688 19.4375 -12.039062 20.75 -10.71875 C 22.070312 -9.40625 23.660156 -8.75 25.515625 -8.75 Z M 25.515625 -8.75 "/></g></g></g><g fill="#435ebe" fill-opacity="1"><g transform="translate(1151.114662, 712.496363)"><g><path d="M 2.03125 0 L 1.703125 -4.90625 L 8.328125 -6.71875 C 8.398438 -7.007812 8.46875 -7.648438 8.53125 -8.640625 C 8.601562 -9.640625 8.675781 -10.90625 8.75 -12.4375 C 8.820312 -13.96875 8.859375 -15.617188 8.859375 -17.390625 L 8.96875 -25.515625 C 8.96875 -27.710938 8.894531 -29.613281 8.75 -31.21875 C 8.601562 -32.820312 8.351562 -34.546875 8 -36.390625 L 1.171875 -37.890625 L 1.171875 -42.6875 L 19.953125 -47.5 L 22.953125 -45.6875 L 22.3125 -39.390625 L 22.625 -39.28125 C 24.832031 -42.125 27.269531 -44.238281 29.9375 -45.625 C 32.601562 -47.007812 35.394531 -47.703125 38.3125 -47.703125 C 41.375 -47.703125 44.113281 -46.957031 46.53125 -45.46875 C 48.957031 -43.976562 50.863281 -41.789062 52.25 -38.90625 C 53.632812 -36.019531 54.328125 -32.550781 54.328125 -28.5 L 54.328125 -17.5 C 54.328125 -15.082031 54.363281 -12.820312 54.4375 -10.71875 C 54.507812 -8.625 54.648438 -7.289062 54.859375 -6.71875 L 61.484375 -4.90625 L 61.15625 0 L 34.375 0 L 34.046875 -4.90625 L 40.125 -6.71875 C 40.269531 -7.4375 40.378906 -8.363281 40.453125 -9.5 C 40.523438 -10.632812 40.578125 -11.914062 40.609375 -13.34375 C 40.648438 -14.769531 40.671875 -16.117188 40.671875 -17.390625 L 40.671875 -26.359375 C 40.671875 -29.066406 40.257812 -31.253906 39.4375 -32.921875 C 38.625 -34.597656 37.554688 -35.828125 36.234375 -36.609375 C 34.921875 -37.390625 33.445312 -37.78125 31.8125 -37.78125 C 30.03125 -37.78125 28.351562 -37.390625 26.78125 -36.609375 C 25.21875 -35.828125 23.832031 -34.6875 22.625 -33.1875 L 22.625 -17.5 C 22.625 -15.082031 22.675781 -12.820312 22.78125 -10.71875 C 22.894531 -8.625 23.054688 -7.289062 23.265625 -6.71875 L 29.671875 -4.90625 L 29.359375 0 Z M 2.03125 0 "/></g></g></g></svg>